<?xml version="1.0" encoding="UTF-8" standalone="no"?>
<!DOCTYPE svg PUBLIC "-//W3C//DTD SVG 1.1//EN"
 "http://www.w3.org/Graphics/SVG/1.1/DTD/svg11.dtd">
<!-- Generated by graphviz version 2.38.0 (20140413.2041)
 -->
<!-- Title: snakemake_dag Pages: 1 -->
<svg width="915pt" height="276pt"
 viewBox="0.00 0.00 914.50 276.00" xmlns="http://www.w3.org/2000/svg" xmlns:xlink="http://www.w3.org/1999/xlink">
<g id="graph0" class="graph" transform="scale(1 1) rotate(0) translate(4 272)">
<title>snakemake_dag</title>
<polygon fill="white" stroke="none" points="-4,4 -4,-272 910.5,-272 910.5,4 -4,4"/>
<!-- 0 -->
<g id="node1" class="node"><title>0</title>
<path fill="none" stroke="#56a9d8" stroke-width="2" d="M459.5,-36C459.5,-36 429.5,-36 429.5,-36 423.5,-36 417.5,-30 417.5,-24 417.5,-24 417.5,-12 417.5,-12 417.5,-6 423.5,-0 429.5,-0 429.5,-0 459.5,-0 459.5,-0 465.5,-0 471.5,-6 471.5,-12 471.5,-12 471.5,-24 471.5,-24 471.5,-30 465.5,-36 459.5,-36"/>
<text text-anchor="middle" x="444.5" y="-15.5" font-family="sans" font-size="10.00">all</text>
</g>
<!-- 1 -->
<g id="node2" class="node"><title>1</title>
<path fill="none" stroke="#d85656" stroke-width="2" d="M341.5,-108C341.5,-108 301.5,-108 301.5,-108 295.5,-108 289.5,-102 289.5,-96 289.5,-96 289.5,-84 289.5,-84 289.5,-78 295.5,-72 301.5,-72 301.5,-72 341.5,-72 341.5,-72 347.5,-72 353.5,-78 353.5,-84 353.5,-84 353.5,-96 353.5,-96 353.5,-102 347.5,-108 341.5,-108"/>
<text text-anchor="middle" x="321.5" y="-87.5" font-family="sans" font-size="10.00">assembly</text>
</g>
<!-- 1&#45;&gt;0 -->
<g id="edge1" class="edge"><title>1&#45;&gt;0</title>
<path fill="none" stroke="grey" stroke-width="2" d="M351.589,-71.8761C368.668,-62.1563 390.165,-49.9222 408.179,-39.6706"/>
<polygon fill="grey" stroke="grey" stroke-width="2" points="410.279,-42.5023 417.239,-34.5142 406.817,-36.4185 410.279,-42.5023"/>
</g>
<!-- 2 -->
<g id="node3" class="node"><title>2</title>
<path fill="none" stroke="#d85656" stroke-width="2" d="M423.5,-108C423.5,-108 383.5,-108 383.5,-108 377.5,-108 371.5,-102 371.5,-96 371.5,-96 371.5,-84 371.5,-84 371.5,-78 377.5,-72 383.5,-72 383.5,-72 423.5,-72 423.5,-72 429.5,-72 435.5,-78 435.5,-84 435.5,-84 435.5,-96 435.5,-96 435.5,-102 429.5,-108 423.5,-108"/>
<text text-anchor="middle" x="403.5" y="-87.5" font-family="sans" font-size="10.00">assembly</text>
</g>
<!-- 2&#45;&gt;0 -->
<g id="edge2" class="edge"><title>2&#45;&gt;0</title>
<path fill="none" stroke="grey" stroke-width="2" d="M413.635,-71.6966C418.352,-63.6436 424.062,-53.8945 429.282,-44.9824"/>
<polygon fill="grey" stroke="grey" stroke-width="2" points="432.448,-46.5021 434.482,-36.1043 426.408,-42.9643 432.448,-46.5021"/>
</g>
<!-- 3 -->
<g id="node4" class="node"><title>3</title>
<path fill="none" stroke="#d85656" stroke-width="2" d="M505.5,-108C505.5,-108 465.5,-108 465.5,-108 459.5,-108 453.5,-102 453.5,-96 453.5,-96 453.5,-84 453.5,-84 453.5,-78 459.5,-72 465.5,-72 465.5,-72 505.5,-72 505.5,-72 511.5,-72 517.5,-78 517.5,-84 517.5,-84 517.5,-96 517.5,-96 517.5,-102 511.5,-108 505.5,-108"/>
<text text-anchor="middle" x="485.5" y="-87.5" font-family="sans" font-size="10.00">assembly</text>
</g>
<!-- 3&#45;&gt;0 -->
<g id="edge3" class="edge"><title>3&#45;&gt;0</title>
<path fill="none" stroke="grey" stroke-width="2" d="M475.365,-71.6966C470.648,-63.6436 464.938,-53.8945 459.718,-44.9824"/>
<polygon fill="grey" stroke="grey" stroke-width="2" points="462.592,-42.9643 454.518,-36.1043 456.552,-46.5021 462.592,-42.9643"/>
</g>
<!-- 4 -->
<g id="node5" class="node"><title>4</title>
<path fill="none" stroke="#d85656" stroke-width="2" d="M587.5,-108C587.5,-108 547.5,-108 547.5,-108 541.5,-108 535.5,-102 535.5,-96 535.5,-96 535.5,-84 535.5,-84 535.5,-78 541.5,-72 547.5,-72 547.5,-72 587.5,-72 587.5,-72 593.5,-72 599.5,-78 599.5,-84 599.5,-84 599.5,-96 599.5,-96 599.5,-102 593.5,-108 587.5,-108"/>
<text text-anchor="middle" x="567.5" y="-87.5" font-family="sans" font-size="10.00">assembly</text>
</g>
<!-- 4&#45;&gt;0 -->
<g id="edge4" class="edge"><title>4&#45;&gt;0</title>
<path fill="none" stroke="grey" stroke-width="2" d="M537.411,-71.8761C520.332,-62.1563 498.835,-49.9222 480.821,-39.6706"/>
<polygon fill="grey" stroke="grey" stroke-width="2" points="482.183,-36.4185 471.761,-34.5142 478.721,-42.5023 482.183,-36.4185"/>
</g>
<!-- 5 -->
<g id="node6" class="node"><title>5</title>
<path fill="none" stroke="#d6d856" stroke-width="2" d="M175.5,-180C175.5,-180 145.5,-180 145.5,-180 139.5,-180 133.5,-174 133.5,-168 133.5,-168 133.5,-156 133.5,-156 133.5,-150 139.5,-144 145.5,-144 145.5,-144 175.5,-144 175.5,-144 181.5,-144 187.5,-150 187.5,-156 187.5,-156 187.5,-168 187.5,-168 187.5,-174 181.5,-180 175.5,-180"/>
<text text-anchor="middle" x="160.5" y="-159.5" font-family="sans" font-size="10.00">prinseq</text>
</g>
<!-- 5&#45;&gt;1 -->
<g id="edge5" class="edge"><title>5&#45;&gt;1</title>
<path fill="none" stroke="grey" stroke-width="2" d="M187.811,-149.125C213.04,-138.156 250.885,-121.702 279.876,-109.097"/>
<polygon fill="grey" stroke="grey" stroke-width="2" points="281.563,-112.181 289.338,-104.984 278.772,-105.761 281.563,-112.181"/>
</g>
<!-- 6 -->
<g id="node7" class="node"><title>6</title>
<path fill="none" stroke="#5682d8" stroke-width="2" d="M475,-180C475,-180 414,-180 414,-180 408,-180 402,-174 402,-168 402,-168 402,-156 402,-156 402,-150 408,-144 414,-144 414,-144 475,-144 475,-144 481,-144 487,-150 487,-156 487,-156 487,-168 487,-168 487,-174 481,-180 475,-180"/>
<text text-anchor="middle" x="444.5" y="-159.5" font-family="sans" font-size="10.00">define_primer</text>
</g>
<!-- 6&#45;&gt;1 -->
<g id="edge6" class="edge"><title>6&#45;&gt;1</title>
<path fill="none" stroke="grey" stroke-width="2" d="M414.411,-143.876C398.18,-134.639 377.958,-123.131 360.529,-113.212"/>
<polygon fill="grey" stroke="grey" stroke-width="2" points="362.127,-110.094 351.705,-108.19 358.665,-116.178 362.127,-110.094"/>
</g>
<!-- 6&#45;&gt;2 -->
<g id="edge8" class="edge"><title>6&#45;&gt;2</title>
<path fill="none" stroke="grey" stroke-width="2" d="M434.365,-143.697C429.648,-135.644 423.938,-125.894 418.718,-116.982"/>
<polygon fill="grey" stroke="grey" stroke-width="2" points="421.592,-114.964 413.518,-108.104 415.552,-118.502 421.592,-114.964"/>
</g>
<!-- 6&#45;&gt;3 -->
<g id="edge10" class="edge"><title>6&#45;&gt;3</title>
<path fill="none" stroke="grey" stroke-width="2" d="M454.635,-143.697C459.352,-135.644 465.062,-125.894 470.282,-116.982"/>
<polygon fill="grey" stroke="grey" stroke-width="2" points="473.448,-118.502 475.482,-108.104 467.408,-114.964 473.448,-118.502"/>
</g>
<!-- 6&#45;&gt;4 -->
<g id="edge12" class="edge"><title>6&#45;&gt;4</title>
<path fill="none" stroke="grey" stroke-width="2" d="M474.589,-143.876C490.82,-134.639 511.042,-123.131 528.471,-113.212"/>
<polygon fill="grey" stroke="grey" stroke-width="2" points="530.335,-116.178 537.295,-108.19 526.873,-110.094 530.335,-116.178"/>
</g>
<!-- 7 -->
<g id="node8" class="node"><title>7</title>
<path fill="none" stroke="#d6d856" stroke-width="2" d="M371.5,-180C371.5,-180 341.5,-180 341.5,-180 335.5,-180 329.5,-174 329.5,-168 329.5,-168 329.5,-156 329.5,-156 329.5,-150 335.5,-144 341.5,-144 341.5,-144 371.5,-144 371.5,-144 377.5,-144 383.5,-150 383.5,-156 383.5,-156 383.5,-168 383.5,-168 383.5,-174 377.5,-180 371.5,-180"/>
<text text-anchor="middle" x="356.5" y="-159.5" font-family="sans" font-size="10.00">prinseq</text>
</g>
<!-- 7&#45;&gt;2 -->
<g id="edge7" class="edge"><title>7&#45;&gt;2</title>
<path fill="none" stroke="grey" stroke-width="2" d="M368.118,-143.697C373.639,-135.474 380.347,-125.483 386.432,-116.421"/>
<polygon fill="grey" stroke="grey" stroke-width="2" points="389.347,-118.358 392.016,-108.104 383.535,-114.456 389.347,-118.358"/>
</g>
<!-- 8 -->
<g id="node9" class="node"><title>8</title>
<path fill="none" stroke="#d6d856" stroke-width="2" d="M547.5,-180C547.5,-180 517.5,-180 517.5,-180 511.5,-180 505.5,-174 505.5,-168 505.5,-168 505.5,-156 505.5,-156 505.5,-150 511.5,-144 517.5,-144 517.5,-144 547.5,-144 547.5,-144 553.5,-144 559.5,-150 559.5,-156 559.5,-156 559.5,-168 559.5,-168 559.5,-174 553.5,-180 547.5,-180"/>
<text text-anchor="middle" x="532.5" y="-159.5" font-family="sans" font-size="10.00">prinseq</text>
</g>
<!-- 8&#45;&gt;3 -->
<g id="edge9" class="edge"><title>8&#45;&gt;3</title>
<path fill="none" stroke="grey" stroke-width="2" d="M520.882,-143.697C515.361,-135.474 508.653,-125.483 502.568,-116.421"/>
<polygon fill="grey" stroke="grey" stroke-width="2" points="505.465,-114.456 496.984,-108.104 499.653,-118.358 505.465,-114.456"/>
</g>
<!-- 9 -->
<g id="node10" class="node"><title>9</title>
<path fill="none" stroke="#d6d856" stroke-width="2" d="M753.5,-180C753.5,-180 723.5,-180 723.5,-180 717.5,-180 711.5,-174 711.5,-168 711.5,-168 711.5,-156 711.5,-156 711.5,-150 717.5,-144 723.5,-144 723.5,-144 753.5,-144 753.5,-144 759.5,-144 765.5,-150 765.5,-156 765.5,-156 765.5,-168 765.5,-168 765.5,-174 759.5,-180 753.5,-180"/>
<text text-anchor="middle" x="738.5" y="-159.5" font-family="sans" font-size="10.00">prinseq</text>
</g>
<!-- 9&#45;&gt;4 -->
<g id="edge11" class="edge"><title>9&#45;&gt;4</title>
<path fill="none" stroke="grey" stroke-width="2" d="M711.405,-149.908C683.923,-138.659 641.022,-121.097 609.205,-108.072"/>
<polygon fill="grey" stroke="grey" stroke-width="2" points="610.296,-104.737 599.716,-104.188 607.644,-111.215 610.296,-104.737"/>
</g>
<!-- 10 -->
<g id="node11" class="node"><title>10</title>
<path fill="none" stroke="#56d8a9" stroke-width="2" d="M83,-268C83,-268 12,-268 12,-268 6,-268 0,-262 0,-256 0,-256 0,-228 0,-228 0,-222 6,-216 12,-216 12,-216 83,-216 83,-216 89,-216 95,-222 95,-228 95,-228 95,-256 95,-256 95,-262 89,-268 83,-268"/>
<text text-anchor="middle" x="47.5" y="-256" font-family="sans" font-size="10.00">unzip</text>
<text text-anchor="middle" x="47.5" y="-245" font-family="sans" font-size="10.00">read: 1</text>
<text text-anchor="middle" x="47.5" y="-234" font-family="sans" font-size="10.00">sample: A071SE</text>
<text text-anchor="middle" x="47.5" y="-223" font-family="sans" font-size="10.00">unit: A</text>
</g>
<!-- 10&#45;&gt;5 -->
<g id="edge13" class="edge"><title>10&#45;&gt;5</title>
<path fill="none" stroke="grey" stroke-width="2" d="M83.8759,-215.891C97.7424,-206.319 113.469,-195.464 127.051,-186.089"/>
<polygon fill="grey" stroke="grey" stroke-width="2" points="129.384,-188.731 135.625,-180.17 125.407,-182.971 129.384,-188.731"/>
</g>
<!-- 11 -->
<g id="node12" class="node"><title>11</title>
<path fill="none" stroke="#56d8a9" stroke-width="2" d="M196,-268C196,-268 125,-268 125,-268 119,-268 113,-262 113,-256 113,-256 113,-228 113,-228 113,-222 119,-216 125,-216 125,-216 196,-216 196,-216 202,-216 208,-222 208,-228 208,-228 208,-256 208,-256 208,-262 202,-268 196,-268"/>
<text text-anchor="middle" x="160.5" y="-256" font-family="sans" font-size="10.00">unzip</text>
<text text-anchor="middle" x="160.5" y="-245" font-family="sans" font-size="10.00">read: 2</text>
<text text-anchor="middle" x="160.5" y="-234" font-family="sans" font-size="10.00">sample: A071SE</text>
<text text-anchor="middle" x="160.5" y="-223" font-family="sans" font-size="10.00">unit: A</text>
</g>
<!-- 11&#45;&gt;5 -->
<g id="edge14" class="edge"><title>11&#45;&gt;5</title>
<path fill="none" stroke="grey" stroke-width="2" d="M160.5,-215.891C160.5,-207.84 160.5,-198.88 160.5,-190.658"/>
<polygon fill="grey" stroke="grey" stroke-width="2" points="164,-190.411 160.5,-180.411 157,-190.411 164,-190.411"/>
</g>
<!-- 12 -->
<g id="node13" class="node"><title>12</title>
<path fill="none" stroke="#56d8a9" stroke-width="2" d="M309,-268C309,-268 238,-268 238,-268 232,-268 226,-262 226,-256 226,-256 226,-228 226,-228 226,-222 232,-216 238,-216 238,-216 309,-216 309,-216 315,-216 321,-222 321,-228 321,-228 321,-256 321,-256 321,-262 315,-268 309,-268"/>
<text text-anchor="middle" x="273.5" y="-256" font-family="sans" font-size="10.00">unzip</text>
<text text-anchor="middle" x="273.5" y="-245" font-family="sans" font-size="10.00">read: 1</text>
<text text-anchor="middle" x="273.5" y="-234" font-family="sans" font-size="10.00">sample: A071SE</text>
<text text-anchor="middle" x="273.5" y="-223" font-family="sans" font-size="10.00">unit: B</text>
</g>
<!-- 12&#45;&gt;7 -->
<g id="edge15" class="edge"><title>12&#45;&gt;7</title>
<path fill="none" stroke="grey" stroke-width="2" d="M300.219,-215.891C310.016,-206.684 321.077,-196.289 330.784,-187.167"/>
<polygon fill="grey" stroke="grey" stroke-width="2" points="333.339,-189.569 338.229,-180.17 328.545,-184.468 333.339,-189.569"/>
</g>
<!-- 13 -->
<g id="node14" class="node"><title>13</title>
<path fill="none" stroke="#56d8a9" stroke-width="2" d="M422,-268C422,-268 351,-268 351,-268 345,-268 339,-262 339,-256 339,-256 339,-228 339,-228 339,-222 345,-216 351,-216 351,-216 422,-216 422,-216 428,-216 434,-222 434,-228 434,-228 434,-256 434,-256 434,-262 428,-268 422,-268"/>
<text text-anchor="middle" x="386.5" y="-256" font-family="sans" font-size="10.00">unzip</text>
<text text-anchor="middle" x="386.5" y="-245" font-family="sans" font-size="10.00">read: 2</text>
<text text-anchor="middle" x="386.5" y="-234" font-family="sans" font-size="10.00">sample: A071SE</text>
<text text-anchor="middle" x="386.5" y="-223" font-family="sans" font-size="10.00">unit: B</text>
</g>
<!-- 13&#45;&gt;7 -->
<g id="edge16" class="edge"><title>13&#45;&gt;7</title>
<path fill="none" stroke="grey" stroke-width="2" d="M376.843,-215.891C373.642,-207.568 370.067,-198.275 366.819,-189.829"/>
<polygon fill="grey" stroke="grey" stroke-width="2" points="370.053,-188.488 363.196,-180.411 363.52,-191.001 370.053,-188.488"/>
</g>
<!-- 14 -->
<g id="node15" class="node"><title>14</title>
<path fill="none" stroke="#56d8a9" stroke-width="2" d="M540.5,-268C540.5,-268 464.5,-268 464.5,-268 458.5,-268 452.5,-262 452.5,-256 452.5,-256 452.5,-228 452.5,-228 452.5,-222 458.5,-216 464.5,-216 464.5,-216 540.5,-216 540.5,-216 546.5,-216 552.5,-222 552.5,-228 552.5,-228 552.5,-256 552.5,-256 552.5,-262 546.5,-268 540.5,-268"/>
<text text-anchor="middle" x="502.5" y="-256" font-family="sans" font-size="10.00">unzip</text>
<text text-anchor="middle" x="502.5" y="-245" font-family="sans" font-size="10.00">read: 1</text>
<text text-anchor="middle" x="502.5" y="-234" font-family="sans" font-size="10.00">sample: A172WA</text>
<text text-anchor="middle" x="502.5" y="-223" font-family="sans" font-size="10.00">unit: A</text>
</g>
<!-- 14&#45;&gt;8 -->
<g id="edge17" class="edge"><title>14&#45;&gt;8</title>
<path fill="none" stroke="grey" stroke-width="2" d="M512.157,-215.891C515.358,-207.568 518.933,-198.275 522.181,-189.829"/>
<polygon fill="grey" stroke="grey" stroke-width="2" points="525.48,-191.001 525.804,-180.411 518.947,-188.488 525.48,-191.001"/>
</g>
<!-- 15 -->
<g id="node16" class="node"><title>15</title>
<path fill="none" stroke="#56d8a9" stroke-width="2" d="M658.5,-268C658.5,-268 582.5,-268 582.5,-268 576.5,-268 570.5,-262 570.5,-256 570.5,-256 570.5,-228 570.5,-228 570.5,-222 576.5,-216 582.5,-216 582.5,-216 658.5,-216 658.5,-216 664.5,-216 670.5,-222 670.5,-228 670.5,-228 670.5,-256 670.5,-256 670.5,-262 664.5,-268 658.5,-268"/>
<text text-anchor="middle" x="620.5" y="-256" font-family="sans" font-size="10.00">unzip</text>
<text text-anchor="middle" x="620.5" y="-245" font-family="sans" font-size="10.00">read: 2</text>
<text text-anchor="middle" x="620.5" y="-234" font-family="sans" font-size="10.00">sample: A172WA</text>
<text text-anchor="middle" x="620.5" y="-223" font-family="sans" font-size="10.00">unit: A</text>
</g>
<!-- 15&#45;&gt;8 -->
<g id="edge18" class="edge"><title>15&#45;&gt;8</title>
<path fill="none" stroke="grey" stroke-width="2" d="M592.172,-215.891C581.682,-206.593 569.825,-196.083 559.46,-186.896"/>
<polygon fill="grey" stroke="grey" stroke-width="2" points="561.677,-184.184 551.872,-180.17 557.033,-189.423 561.677,-184.184"/>
</g>
<!-- 16 -->
<g id="node17" class="node"><title>16</title>
<path fill="none" stroke="#56d8a9" stroke-width="2" d="M776.5,-268C776.5,-268 700.5,-268 700.5,-268 694.5,-268 688.5,-262 688.5,-256 688.5,-256 688.5,-228 688.5,-228 688.5,-222 694.5,-216 700.5,-216 700.5,-216 776.5,-216 776.5,-216 782.5,-216 788.5,-222 788.5,-228 788.5,-228 788.5,-256 788.5,-256 788.5,-262 782.5,-268 776.5,-268"/>
<text text-anchor="middle" x="738.5" y="-256" font-family="sans" font-size="10.00">unzip</text>
<text text-anchor="middle" x="738.5" y="-245" font-family="sans" font-size="10.00">read: 1</text>
<text text-anchor="middle" x="738.5" y="-234" font-family="sans" font-size="10.00">sample: A172WA</text>
<text text-anchor="middle" x="738.5" y="-223" font-family="sans" font-size="10.00">unit: B</text>
</g>
<!-- 16&#45;&gt;9 -->
<g id="edge19" class="edge"><title>16&#45;&gt;9</title>
<path fill="none" stroke="grey" stroke-width="2" d="M738.5,-215.891C738.5,-207.84 738.5,-198.88 738.5,-190.658"/>
<polygon fill="grey" stroke="grey" stroke-width="2" points="742,-190.411 738.5,-180.411 735,-190.411 742,-190.411"/>
</g>
<!-- 17 -->
<g id="node18" class="node"><title>17</title>
<path fill="none" stroke="#56d8a9" stroke-width="2" d="M894.5,-268C894.5,-268 818.5,-268 818.5,-268 812.5,-268 806.5,-262 806.5,-256 806.5,-256 806.5,-228 806.5,-228 806.5,-222 812.5,-216 818.5,-216 818.5,-216 894.5,-216 894.5,-216 900.5,-216 906.5,-222 906.5,-228 906.5,-228 906.5,-256 906.5,-256 906.5,-262 900.5,-268 894.5,-268"/>
<text text-anchor="middle" x="856.5" y="-256" font-family="sans" font-size="10.00">unzip</text>
<text text-anchor="middle" x="856.5" y="-245" font-family="sans" font-size="10.00">read: 2</text>
<text text-anchor="middle" x="856.5" y="-234" font-family="sans" font-size="10.00">sample: A172WA</text>
<text text-anchor="middle" x="856.5" y="-223" font-family="sans" font-size="10.00">unit: B</text>
</g>
<!-- 17&#45;&gt;9 -->
<g id="edge20" class="edge"><title>17&#45;&gt;9</title>
<path fill="none" stroke="grey" stroke-width="2" d="M818.515,-215.891C803.897,-206.228 787.299,-195.257 773.025,-185.821"/>
<polygon fill="grey" stroke="grey" stroke-width="2" points="774.748,-182.765 764.475,-180.17 770.888,-188.604 774.748,-182.765"/>
</g>
</g>
</svg>
