<?xml version="1.0" encoding="UTF-8" standalone="no"?>
<!DOCTYPE svg PUBLIC "-//W3C//DTD SVG 1.1//EN"
 "http://www.w3.org/Graphics/SVG/1.1/DTD/svg11.dtd">
<!-- Generated by graphviz version 2.46.1 (20210222.2046)
 -->
<!-- Title: snakemake_dag Pages: 1 -->
<svg width="1189pt" height="564pt"
 viewBox="0.00 0.00 1189.00 564.00" xmlns="http://www.w3.org/2000/svg" xmlns:xlink="http://www.w3.org/1999/xlink">
<g id="graph0" class="graph" transform="scale(1 1) rotate(0) translate(4 560)">
<title>snakemake_dag</title>
<polygon fill="white" stroke="transparent" points="-4,4 -4,-560 1185,-560 1185,4 -4,4"/>
<!-- 0 -->
<g id="node1" class="node">
<title>0</title>
<path fill="none" stroke="#d87556" stroke-width="2" d="M623.5,-36C623.5,-36 593.5,-36 593.5,-36 587.5,-36 581.5,-30 581.5,-24 581.5,-24 581.5,-12 581.5,-12 581.5,-6 587.5,0 593.5,0 593.5,0 623.5,0 623.5,0 629.5,0 635.5,-6 635.5,-12 635.5,-12 635.5,-24 635.5,-24 635.5,-30 629.5,-36 623.5,-36"/>
<text text-anchor="middle" x="608.5" y="-15.5" font-family="sans" font-size="10.00">all</text>
</g>
<!-- 1 -->
<g id="node2" class="node">
<title>1</title>
<path fill="none" stroke="#5692d8" stroke-width="2" d="M378,-108C378,-108 283,-108 283,-108 277,-108 271,-102 271,-96 271,-96 271,-84 271,-84 271,-78 277,-72 283,-72 283,-72 378,-72 378,-72 384,-72 390,-78 390,-84 390,-84 390,-96 390,-96 390,-102 384,-108 378,-108"/>
<text text-anchor="middle" x="330.5" y="-87.5" font-family="sans" font-size="10.00">constraint_filtering_3</text>
</g>
<!-- 1&#45;&gt;0 -->
<g id="edge1" class="edge">
<title>1&#45;&gt;0</title>
<path fill="none" stroke="grey" stroke-width="2" d="M390.14,-73.98C445.17,-60.13 525.15,-39.99 571.49,-28.32"/>
<polygon fill="grey" stroke="grey" stroke-width="2" points="572.56,-31.66 581.41,-25.82 570.85,-24.87 572.56,-31.66"/>
</g>
<!-- 2 -->
<g id="node3" class="node">
<title>2</title>
<path fill="none" stroke="#56d863" stroke-width="2" d="M284.5,-180C284.5,-180 244.5,-180 244.5,-180 238.5,-180 232.5,-174 232.5,-168 232.5,-168 232.5,-156 232.5,-156 232.5,-150 238.5,-144 244.5,-144 244.5,-144 284.5,-144 284.5,-144 290.5,-144 296.5,-150 296.5,-156 296.5,-156 296.5,-168 296.5,-168 296.5,-174 290.5,-180 284.5,-180"/>
<text text-anchor="middle" x="264.5" y="-159.5" font-family="sans" font-size="10.00">assembly</text>
</g>
<!-- 2&#45;&gt;1 -->
<g id="edge5" class="edge">
<title>2&#45;&gt;1</title>
<path fill="none" stroke="grey" stroke-width="2" d="M280.81,-143.7C288.81,-135.22 298.57,-124.86 307.32,-115.58"/>
<polygon fill="grey" stroke="grey" stroke-width="2" points="310.06,-117.78 314.37,-108.1 304.97,-112.98 310.06,-117.78"/>
</g>
<!-- 3 -->
<g id="node4" class="node">
<title>3</title>
<path fill="none" stroke="#d85656" stroke-width="2" d="M107,-252C107,-252 12,-252 12,-252 6,-252 0,-246 0,-240 0,-240 0,-228 0,-228 0,-222 6,-216 12,-216 12,-216 107,-216 107,-216 113,-216 119,-222 119,-228 119,-228 119,-240 119,-240 119,-246 113,-252 107,-252"/>
<text text-anchor="middle" x="59.5" y="-237" font-family="sans" font-size="10.00">constraint_filtering_2</text>
<text text-anchor="middle" x="59.5" y="-226" font-family="sans" font-size="10.00">read: 1</text>
</g>
<!-- 3&#45;&gt;2 -->
<g id="edge6" class="edge">
<title>3&#45;&gt;2</title>
<path fill="none" stroke="grey" stroke-width="2" d="M109.39,-215.97C144.08,-204.12 189.8,-188.51 222.61,-177.31"/>
<polygon fill="grey" stroke="grey" stroke-width="2" points="224.01,-180.52 232.34,-173.98 221.75,-173.9 224.01,-180.52"/>
</g>
<!-- 4 -->
<g id="node5" class="node">
<title>4</title>
<path fill="none" stroke="#9fd856" stroke-width="2" d="M164.5,-324C164.5,-324 134.5,-324 134.5,-324 128.5,-324 122.5,-318 122.5,-312 122.5,-312 122.5,-300 122.5,-300 122.5,-294 128.5,-288 134.5,-288 134.5,-288 164.5,-288 164.5,-288 170.5,-288 176.5,-294 176.5,-300 176.5,-300 176.5,-312 176.5,-312 176.5,-318 170.5,-324 164.5,-324"/>
<text text-anchor="middle" x="149.5" y="-303.5" font-family="sans" font-size="10.00">prinseq</text>
</g>
<!-- 4&#45;&gt;3 -->
<g id="edge9" class="edge">
<title>4&#45;&gt;3</title>
<path fill="none" stroke="grey" stroke-width="2" d="M127.25,-287.7C115.92,-278.88 101.97,-268.03 89.68,-258.47"/>
<polygon fill="grey" stroke="grey" stroke-width="2" points="91.53,-255.48 81.49,-252.1 87.24,-261.01 91.53,-255.48"/>
</g>
<!-- 10 -->
<g id="node11" class="node">
<title>10</title>
<path fill="none" stroke="#d85656" stroke-width="2" d="M244,-252C244,-252 149,-252 149,-252 143,-252 137,-246 137,-240 137,-240 137,-228 137,-228 137,-222 143,-216 149,-216 149,-216 244,-216 244,-216 250,-216 256,-222 256,-228 256,-228 256,-240 256,-240 256,-246 250,-252 244,-252"/>
<text text-anchor="middle" x="196.5" y="-237" font-family="sans" font-size="10.00">constraint_filtering_2</text>
<text text-anchor="middle" x="196.5" y="-226" font-family="sans" font-size="10.00">read: 2</text>
</g>
<!-- 4&#45;&gt;10 -->
<g id="edge16" class="edge">
<title>4&#45;&gt;10</title>
<path fill="none" stroke="grey" stroke-width="2" d="M161.12,-287.7C166.64,-279.47 173.35,-269.48 179.43,-260.42"/>
<polygon fill="grey" stroke="grey" stroke-width="2" points="182.35,-262.36 185.02,-252.1 176.54,-258.46 182.35,-262.36"/>
</g>
<!-- 5 -->
<g id="node6" class="node">
<title>5</title>
<path fill="none" stroke="#56b1d8" stroke-width="2" d="M180,-396C180,-396 85,-396 85,-396 79,-396 73,-390 73,-384 73,-384 73,-372 73,-372 73,-366 79,-360 85,-360 85,-360 180,-360 180,-360 186,-360 192,-366 192,-372 192,-372 192,-384 192,-384 192,-390 186,-396 180,-396"/>
<text text-anchor="middle" x="132.5" y="-375.5" font-family="sans" font-size="10.00">constraint_filtering_1</text>
</g>
<!-- 5&#45;&gt;4 -->
<g id="edge10" class="edge">
<title>5&#45;&gt;4</title>
<path fill="none" stroke="grey" stroke-width="2" d="M136.7,-359.7C138.6,-351.9 140.88,-342.51 142.98,-333.83"/>
<polygon fill="grey" stroke="grey" stroke-width="2" points="146.39,-334.65 145.35,-324.1 139.58,-333 146.39,-334.65"/>
</g>
<!-- 6 -->
<g id="node7" class="node">
<title>6</title>
<path fill="none" stroke="#d89556" stroke-width="2" d="M192,-484C192,-484 121,-484 121,-484 115,-484 109,-478 109,-472 109,-472 109,-444 109,-444 109,-438 115,-432 121,-432 121,-432 192,-432 192,-432 198,-432 204,-438 204,-444 204,-444 204,-472 204,-472 204,-478 198,-484 192,-484"/>
<text text-anchor="middle" x="156.5" y="-472" font-family="sans" font-size="10.00">unzip</text>
<text text-anchor="middle" x="156.5" y="-461" font-family="sans" font-size="10.00">read: 1</text>
<text text-anchor="middle" x="156.5" y="-450" font-family="sans" font-size="10.00">sample: A071SE</text>
<text text-anchor="middle" x="156.5" y="-439" font-family="sans" font-size="10.00">unit: A</text>
</g>
<!-- 6&#45;&gt;5 -->
<g id="edge12" class="edge">
<title>6&#45;&gt;5</title>
<path fill="none" stroke="grey" stroke-width="2" d="M148.77,-431.89C146.24,-423.66 143.42,-414.48 140.84,-406.1"/>
<polygon fill="grey" stroke="grey" stroke-width="2" points="144.14,-404.94 137.86,-396.41 137.45,-407 144.14,-404.94"/>
</g>
<!-- 7 -->
<g id="node8" class="node">
<title>7</title>
<path fill="none" stroke="#88d856" stroke-width="2" d="M631,-556C631,-556 580,-556 580,-556 574,-556 568,-550 568,-544 568,-544 568,-532 568,-532 568,-526 574,-520 580,-520 580,-520 631,-520 631,-520 637,-520 643,-526 643,-532 643,-532 643,-544 643,-544 643,-550 637,-556 631,-556"/>
<text text-anchor="middle" x="605.5" y="-535.5" font-family="sans" font-size="10.00">demultiplex</text>
</g>
<!-- 7&#45;&gt;6 -->
<g id="edge13" class="edge">
<title>7&#45;&gt;6</title>
<path fill="none" stroke="grey" stroke-width="2" d="M567.95,-534.45C499.03,-529.19 348.08,-514.93 224.5,-484 220.93,-483.11 217.3,-482.09 213.65,-481"/>
<polygon fill="grey" stroke="grey" stroke-width="2" points="214.61,-477.63 204.02,-477.93 212.49,-484.3 214.61,-477.63"/>
</g>
<!-- 9 -->
<g id="node10" class="node">
<title>9</title>
<path fill="none" stroke="#d89556" stroke-width="2" d="M317,-484C317,-484 246,-484 246,-484 240,-484 234,-478 234,-472 234,-472 234,-444 234,-444 234,-438 240,-432 246,-432 246,-432 317,-432 317,-432 323,-432 329,-438 329,-444 329,-444 329,-472 329,-472 329,-478 323,-484 317,-484"/>
<text text-anchor="middle" x="281.5" y="-472" font-family="sans" font-size="10.00">unzip</text>
<text text-anchor="middle" x="281.5" y="-461" font-family="sans" font-size="10.00">read: 2</text>
<text text-anchor="middle" x="281.5" y="-450" font-family="sans" font-size="10.00">sample: A071SE</text>
<text text-anchor="middle" x="281.5" y="-439" font-family="sans" font-size="10.00">unit: A</text>
</g>
<!-- 7&#45;&gt;9 -->
<g id="edge15" class="edge">
<title>7&#45;&gt;9</title>
<path fill="none" stroke="grey" stroke-width="2" d="M567.72,-529.62C520.09,-520.1 435.81,-502.55 364.5,-484 356.14,-481.83 347.36,-479.37 338.76,-476.87"/>
<polygon fill="grey" stroke="grey" stroke-width="2" points="339.75,-473.51 329.17,-474.03 337.77,-480.22 339.75,-473.51"/>
</g>
<!-- 17 -->
<g id="node18" class="node">
<title>17</title>
<path fill="none" stroke="#d89556" stroke-width="2" d="M456,-484C456,-484 385,-484 385,-484 379,-484 373,-478 373,-472 373,-472 373,-444 373,-444 373,-438 379,-432 385,-432 385,-432 456,-432 456,-432 462,-432 468,-438 468,-444 468,-444 468,-472 468,-472 468,-478 462,-484 456,-484"/>
<text text-anchor="middle" x="420.5" y="-472" font-family="sans" font-size="10.00">unzip</text>
<text text-anchor="middle" x="420.5" y="-461" font-family="sans" font-size="10.00">read: 1</text>
<text text-anchor="middle" x="420.5" y="-450" font-family="sans" font-size="10.00">sample: A071SE</text>
<text text-anchor="middle" x="420.5" y="-439" font-family="sans" font-size="10.00">unit: B</text>
</g>
<!-- 7&#45;&gt;17 -->
<g id="edge25" class="edge">
<title>7&#45;&gt;17</title>
<path fill="none" stroke="grey" stroke-width="2" d="M567.62,-521.03C541.67,-510.09 506.79,-495.38 477.51,-483.04"/>
<polygon fill="grey" stroke="grey" stroke-width="2" points="478.79,-479.78 468.22,-479.12 476.07,-486.23 478.79,-479.78"/>
</g>
<!-- 19 -->
<g id="node20" class="node">
<title>19</title>
<path fill="none" stroke="#d89556" stroke-width="2" d="M584,-484C584,-484 513,-484 513,-484 507,-484 501,-478 501,-472 501,-472 501,-444 501,-444 501,-438 507,-432 513,-432 513,-432 584,-432 584,-432 590,-432 596,-438 596,-444 596,-444 596,-472 596,-472 596,-478 590,-484 584,-484"/>
<text text-anchor="middle" x="548.5" y="-472" font-family="sans" font-size="10.00">unzip</text>
<text text-anchor="middle" x="548.5" y="-461" font-family="sans" font-size="10.00">read: 2</text>
<text text-anchor="middle" x="548.5" y="-450" font-family="sans" font-size="10.00">sample: A071SE</text>
<text text-anchor="middle" x="548.5" y="-439" font-family="sans" font-size="10.00">unit: B</text>
</g>
<!-- 7&#45;&gt;19 -->
<g id="edge27" class="edge">
<title>7&#45;&gt;19</title>
<path fill="none" stroke="grey" stroke-width="2" d="M592.85,-519.69C586.96,-511.64 579.76,-501.77 572.88,-492.36"/>
<polygon fill="grey" stroke="grey" stroke-width="2" points="575.68,-490.27 566.96,-484.26 570.03,-494.4 575.68,-490.27"/>
</g>
<!-- 26 -->
<g id="node27" class="node">
<title>26</title>
<path fill="none" stroke="#d89556" stroke-width="2" d="M712,-484C712,-484 637,-484 637,-484 631,-484 625,-478 625,-472 625,-472 625,-444 625,-444 625,-438 631,-432 637,-432 637,-432 712,-432 712,-432 718,-432 724,-438 724,-444 724,-444 724,-472 724,-472 724,-478 718,-484 712,-484"/>
<text text-anchor="middle" x="674.5" y="-472" font-family="sans" font-size="10.00">unzip</text>
<text text-anchor="middle" x="674.5" y="-461" font-family="sans" font-size="10.00">read: 1</text>
<text text-anchor="middle" x="674.5" y="-450" font-family="sans" font-size="10.00">sample: A172WA</text>
<text text-anchor="middle" x="674.5" y="-439" font-family="sans" font-size="10.00">unit: A</text>
</g>
<!-- 7&#45;&gt;26 -->
<g id="edge37" class="edge">
<title>7&#45;&gt;26</title>
<path fill="none" stroke="grey" stroke-width="2" d="M620.81,-519.69C628.08,-511.47 637.02,-501.37 645.49,-491.79"/>
<polygon fill="grey" stroke="grey" stroke-width="2" points="648.15,-494.07 652.16,-484.26 642.91,-489.43 648.15,-494.07"/>
</g>
<!-- 28 -->
<g id="node29" class="node">
<title>28</title>
<path fill="none" stroke="#d89556" stroke-width="2" d="M844,-484C844,-484 769,-484 769,-484 763,-484 757,-478 757,-472 757,-472 757,-444 757,-444 757,-438 763,-432 769,-432 769,-432 844,-432 844,-432 850,-432 856,-438 856,-444 856,-444 856,-472 856,-472 856,-478 850,-484 844,-484"/>
<text text-anchor="middle" x="806.5" y="-472" font-family="sans" font-size="10.00">unzip</text>
<text text-anchor="middle" x="806.5" y="-461" font-family="sans" font-size="10.00">read: 2</text>
<text text-anchor="middle" x="806.5" y="-450" font-family="sans" font-size="10.00">sample: A172WA</text>
<text text-anchor="middle" x="806.5" y="-439" font-family="sans" font-size="10.00">unit: A</text>
</g>
<!-- 7&#45;&gt;28 -->
<g id="edge39" class="edge">
<title>7&#45;&gt;28</title>
<path fill="none" stroke="grey" stroke-width="2" d="M643.31,-522.33C672.49,-511 713.43,-495.12 747,-482.09"/>
<polygon fill="grey" stroke="grey" stroke-width="2" points="748.65,-485.2 756.71,-478.32 746.12,-478.68 748.65,-485.2"/>
</g>
<!-- 35 -->
<g id="node36" class="node">
<title>35</title>
<path fill="none" stroke="#d89556" stroke-width="2" d="M979,-484C979,-484 904,-484 904,-484 898,-484 892,-478 892,-472 892,-472 892,-444 892,-444 892,-438 898,-432 904,-432 904,-432 979,-432 979,-432 985,-432 991,-438 991,-444 991,-444 991,-472 991,-472 991,-478 985,-484 979,-484"/>
<text text-anchor="middle" x="941.5" y="-472" font-family="sans" font-size="10.00">unzip</text>
<text text-anchor="middle" x="941.5" y="-461" font-family="sans" font-size="10.00">read: 1</text>
<text text-anchor="middle" x="941.5" y="-450" font-family="sans" font-size="10.00">sample: A172WA</text>
<text text-anchor="middle" x="941.5" y="-439" font-family="sans" font-size="10.00">unit: B</text>
</g>
<!-- 7&#45;&gt;35 -->
<g id="edge49" class="edge">
<title>7&#45;&gt;35</title>
<path fill="none" stroke="grey" stroke-width="2" d="M643.28,-530.73C694.16,-521.95 787.36,-504.74 865.5,-484 870.87,-482.57 876.42,-480.98 881.96,-479.32"/>
<polygon fill="grey" stroke="grey" stroke-width="2" points="883.36,-482.55 891.87,-476.25 881.29,-475.86 883.36,-482.55"/>
</g>
<!-- 37 -->
<g id="node38" class="node">
<title>37</title>
<path fill="none" stroke="#d89556" stroke-width="2" d="M1115,-484C1115,-484 1040,-484 1040,-484 1034,-484 1028,-478 1028,-472 1028,-472 1028,-444 1028,-444 1028,-438 1034,-432 1040,-432 1040,-432 1115,-432 1115,-432 1121,-432 1127,-438 1127,-444 1127,-444 1127,-472 1127,-472 1127,-478 1121,-484 1115,-484"/>
<text text-anchor="middle" x="1077.5" y="-472" font-family="sans" font-size="10.00">unzip</text>
<text text-anchor="middle" x="1077.5" y="-461" font-family="sans" font-size="10.00">read: 2</text>
<text text-anchor="middle" x="1077.5" y="-450" font-family="sans" font-size="10.00">sample: A172WA</text>
<text text-anchor="middle" x="1077.5" y="-439" font-family="sans" font-size="10.00">unit: B</text>
</g>
<!-- 7&#45;&gt;37 -->
<g id="edge51" class="edge">
<title>7&#45;&gt;37</title>
<path fill="none" stroke="grey" stroke-width="2" d="M643.21,-534.22C713.95,-528.51 871.13,-513.43 1000.5,-484 1006.21,-482.7 1012.09,-481.16 1017.95,-479.5"/>
<polygon fill="grey" stroke="grey" stroke-width="2" points="1019.15,-482.8 1027.75,-476.6 1017.17,-476.08 1019.15,-482.8"/>
</g>
<!-- 8 -->
<g id="node9" class="node">
<title>8</title>
<path fill="none" stroke="#56b1d8" stroke-width="2" d="M317,-396C317,-396 222,-396 222,-396 216,-396 210,-390 210,-384 210,-384 210,-372 210,-372 210,-366 216,-360 222,-360 222,-360 317,-360 317,-360 323,-360 329,-366 329,-372 329,-372 329,-384 329,-384 329,-390 323,-396 317,-396"/>
<text text-anchor="middle" x="269.5" y="-375.5" font-family="sans" font-size="10.00">constraint_filtering_1</text>
</g>
<!-- 8&#45;&gt;4 -->
<g id="edge11" class="edge">
<title>8&#45;&gt;4</title>
<path fill="none" stroke="grey" stroke-width="2" d="M240.14,-359.88C223.6,-350.23 202.81,-338.1 185.31,-327.89"/>
<polygon fill="grey" stroke="grey" stroke-width="2" points="186.9,-324.77 176.5,-322.75 183.37,-330.81 186.9,-324.77"/>
</g>
<!-- 9&#45;&gt;8 -->
<g id="edge14" class="edge">
<title>9&#45;&gt;8</title>
<path fill="none" stroke="grey" stroke-width="2" d="M277.64,-431.89C276.38,-423.75 274.99,-414.68 273.71,-406.38"/>
<polygon fill="grey" stroke="grey" stroke-width="2" points="277.16,-405.76 272.18,-396.41 270.24,-406.83 277.16,-405.76"/>
</g>
<!-- 10&#45;&gt;2 -->
<g id="edge7" class="edge">
<title>10&#45;&gt;2</title>
<path fill="none" stroke="grey" stroke-width="2" d="M213.31,-215.7C221.63,-207.14 231.81,-196.66 240.89,-187.3"/>
<polygon fill="grey" stroke="grey" stroke-width="2" points="243.43,-189.72 247.88,-180.1 238.41,-184.84 243.43,-189.72"/>
</g>
<!-- 11 -->
<g id="node12" class="node">
<title>11</title>
<path fill="none" stroke="#5673d8" stroke-width="2" d="M620.5,-252C620.5,-252 560.5,-252 560.5,-252 554.5,-252 548.5,-246 548.5,-240 548.5,-240 548.5,-228 548.5,-228 548.5,-222 554.5,-216 560.5,-216 560.5,-216 620.5,-216 620.5,-216 626.5,-216 632.5,-222 632.5,-228 632.5,-228 632.5,-240 632.5,-240 632.5,-246 626.5,-252 620.5,-252"/>
<text text-anchor="middle" x="590.5" y="-231.5" font-family="sans" font-size="10.00">define_primer</text>
</g>
<!-- 11&#45;&gt;2 -->
<g id="edge8" class="edge">
<title>11&#45;&gt;2</title>
<path fill="none" stroke="grey" stroke-width="2" d="M548.33,-218.47C545.35,-217.59 542.39,-216.76 539.5,-216 457.97,-194.65 360.78,-177.92 306.51,-169.33"/>
<polygon fill="grey" stroke="grey" stroke-width="2" points="306.99,-165.87 296.56,-167.78 305.9,-172.78 306.99,-165.87"/>
</g>
<!-- 13 -->
<g id="node14" class="node">
<title>13</title>
<path fill="none" stroke="#56d863" stroke-width="2" d="M496.5,-180C496.5,-180 456.5,-180 456.5,-180 450.5,-180 444.5,-174 444.5,-168 444.5,-168 444.5,-156 444.5,-156 444.5,-150 450.5,-144 456.5,-144 456.5,-144 496.5,-144 496.5,-144 502.5,-144 508.5,-150 508.5,-156 508.5,-156 508.5,-168 508.5,-168 508.5,-174 502.5,-180 496.5,-180"/>
<text text-anchor="middle" x="476.5" y="-159.5" font-family="sans" font-size="10.00">assembly</text>
</g>
<!-- 11&#45;&gt;13 -->
<g id="edge20" class="edge">
<title>11&#45;&gt;13</title>
<path fill="none" stroke="grey" stroke-width="2" d="M562.61,-215.88C547.71,-206.72 529.17,-195.34 513.12,-185.48"/>
<polygon fill="grey" stroke="grey" stroke-width="2" points="514.85,-182.44 504.49,-180.19 511.19,-188.41 514.85,-182.44"/>
</g>
<!-- 22 -->
<g id="node23" class="node">
<title>22</title>
<path fill="none" stroke="#56d863" stroke-width="2" d="M723.5,-180C723.5,-180 683.5,-180 683.5,-180 677.5,-180 671.5,-174 671.5,-168 671.5,-168 671.5,-156 671.5,-156 671.5,-150 677.5,-144 683.5,-144 683.5,-144 723.5,-144 723.5,-144 729.5,-144 735.5,-150 735.5,-156 735.5,-156 735.5,-168 735.5,-168 735.5,-174 729.5,-180 723.5,-180"/>
<text text-anchor="middle" x="703.5" y="-159.5" font-family="sans" font-size="10.00">assembly</text>
</g>
<!-- 11&#45;&gt;22 -->
<g id="edge32" class="edge">
<title>11&#45;&gt;22</title>
<path fill="none" stroke="grey" stroke-width="2" d="M618.14,-215.88C632.92,-206.72 651.29,-195.34 667.2,-185.48"/>
<polygon fill="grey" stroke="grey" stroke-width="2" points="669.09,-188.43 675.75,-180.19 665.41,-182.48 669.09,-188.43"/>
</g>
<!-- 31 -->
<g id="node32" class="node">
<title>31</title>
<path fill="none" stroke="#56d863" stroke-width="2" d="M969.5,-180C969.5,-180 929.5,-180 929.5,-180 923.5,-180 917.5,-174 917.5,-168 917.5,-168 917.5,-156 917.5,-156 917.5,-150 923.5,-144 929.5,-144 929.5,-144 969.5,-144 969.5,-144 975.5,-144 981.5,-150 981.5,-156 981.5,-156 981.5,-168 981.5,-168 981.5,-174 975.5,-180 969.5,-180"/>
<text text-anchor="middle" x="949.5" y="-159.5" font-family="sans" font-size="10.00">assembly</text>
</g>
<!-- 11&#45;&gt;31 -->
<g id="edge44" class="edge">
<title>11&#45;&gt;31</title>
<path fill="none" stroke="grey" stroke-width="2" d="M632.64,-218.66C635.96,-217.7 639.27,-216.8 642.5,-216 735.84,-192.81 847.64,-176.27 907.21,-168.32"/>
<polygon fill="grey" stroke="grey" stroke-width="2" points="907.91,-171.76 917.36,-166.98 906.99,-164.82 907.91,-171.76"/>
</g>
<!-- 12 -->
<g id="node13" class="node">
<title>12</title>
<path fill="none" stroke="#5692d8" stroke-width="2" d="M575,-108C575,-108 480,-108 480,-108 474,-108 468,-102 468,-96 468,-96 468,-84 468,-84 468,-78 474,-72 480,-72 480,-72 575,-72 575,-72 581,-72 587,-78 587,-84 587,-84 587,-96 587,-96 587,-102 581,-108 575,-108"/>
<text text-anchor="middle" x="527.5" y="-87.5" font-family="sans" font-size="10.00">constraint_filtering_3</text>
</g>
<!-- 12&#45;&gt;0 -->
<g id="edge2" class="edge">
<title>12&#45;&gt;0</title>
<path fill="none" stroke="grey" stroke-width="2" d="M547.52,-71.7C557.63,-62.97 570.04,-52.24 581.02,-42.75"/>
<polygon fill="grey" stroke="grey" stroke-width="2" points="583.43,-45.29 588.71,-36.1 578.85,-39.99 583.43,-45.29"/>
</g>
<!-- 13&#45;&gt;12 -->
<g id="edge17" class="edge">
<title>13&#45;&gt;12</title>
<path fill="none" stroke="grey" stroke-width="2" d="M489.11,-143.7C495.1,-135.47 502.38,-125.48 508.98,-116.42"/>
<polygon fill="grey" stroke="grey" stroke-width="2" points="511.98,-118.25 515.04,-108.1 506.32,-114.13 511.98,-118.25"/>
</g>
<!-- 14 -->
<g id="node15" class="node">
<title>14</title>
<path fill="none" stroke="#d85656" stroke-width="2" d="M381,-252C381,-252 286,-252 286,-252 280,-252 274,-246 274,-240 274,-240 274,-228 274,-228 274,-222 280,-216 286,-216 286,-216 381,-216 381,-216 387,-216 393,-222 393,-228 393,-228 393,-240 393,-240 393,-246 387,-252 381,-252"/>
<text text-anchor="middle" x="333.5" y="-237" font-family="sans" font-size="10.00">constraint_filtering_2</text>
<text text-anchor="middle" x="333.5" y="-226" font-family="sans" font-size="10.00">read: 1</text>
</g>
<!-- 14&#45;&gt;13 -->
<g id="edge18" class="edge">
<title>14&#45;&gt;13</title>
<path fill="none" stroke="grey" stroke-width="2" d="M368.48,-215.88C388.65,-206 414.12,-193.54 435.26,-183.19"/>
<polygon fill="grey" stroke="grey" stroke-width="2" points="436.88,-186.29 444.32,-178.75 433.8,-180 436.88,-186.29"/>
</g>
<!-- 15 -->
<g id="node16" class="node">
<title>15</title>
<path fill="none" stroke="#9fd856" stroke-width="2" d="M438.5,-324C438.5,-324 408.5,-324 408.5,-324 402.5,-324 396.5,-318 396.5,-312 396.5,-312 396.5,-300 396.5,-300 396.5,-294 402.5,-288 408.5,-288 408.5,-288 438.5,-288 438.5,-288 444.5,-288 450.5,-294 450.5,-300 450.5,-300 450.5,-312 450.5,-312 450.5,-318 444.5,-324 438.5,-324"/>
<text text-anchor="middle" x="423.5" y="-303.5" font-family="sans" font-size="10.00">prinseq</text>
</g>
<!-- 15&#45;&gt;14 -->
<g id="edge21" class="edge">
<title>15&#45;&gt;14</title>
<path fill="none" stroke="grey" stroke-width="2" d="M401.25,-287.7C389.92,-278.88 375.97,-268.03 363.68,-258.47"/>
<polygon fill="grey" stroke="grey" stroke-width="2" points="365.53,-255.48 355.49,-252.1 361.24,-261.01 365.53,-255.48"/>
</g>
<!-- 20 -->
<g id="node21" class="node">
<title>20</title>
<path fill="none" stroke="#d85656" stroke-width="2" d="M518,-252C518,-252 423,-252 423,-252 417,-252 411,-246 411,-240 411,-240 411,-228 411,-228 411,-222 417,-216 423,-216 423,-216 518,-216 518,-216 524,-216 530,-222 530,-228 530,-228 530,-240 530,-240 530,-246 524,-252 518,-252"/>
<text text-anchor="middle" x="470.5" y="-237" font-family="sans" font-size="10.00">constraint_filtering_2</text>
<text text-anchor="middle" x="470.5" y="-226" font-family="sans" font-size="10.00">read: 2</text>
</g>
<!-- 15&#45;&gt;20 -->
<g id="edge28" class="edge">
<title>15&#45;&gt;20</title>
<path fill="none" stroke="grey" stroke-width="2" d="M435.12,-287.7C440.64,-279.47 447.35,-269.48 453.43,-260.42"/>
<polygon fill="grey" stroke="grey" stroke-width="2" points="456.35,-262.36 459.02,-252.1 450.54,-258.46 456.35,-262.36"/>
</g>
<!-- 16 -->
<g id="node17" class="node">
<title>16</title>
<path fill="none" stroke="#56b1d8" stroke-width="2" d="M454,-396C454,-396 359,-396 359,-396 353,-396 347,-390 347,-384 347,-384 347,-372 347,-372 347,-366 353,-360 359,-360 359,-360 454,-360 454,-360 460,-360 466,-366 466,-372 466,-372 466,-384 466,-384 466,-390 460,-396 454,-396"/>
<text text-anchor="middle" x="406.5" y="-375.5" font-family="sans" font-size="10.00">constraint_filtering_1</text>
</g>
<!-- 16&#45;&gt;15 -->
<g id="edge22" class="edge">
<title>16&#45;&gt;15</title>
<path fill="none" stroke="grey" stroke-width="2" d="M410.7,-359.7C412.6,-351.9 414.88,-342.51 416.98,-333.83"/>
<polygon fill="grey" stroke="grey" stroke-width="2" points="420.39,-334.65 419.35,-324.1 413.58,-333 420.39,-334.65"/>
</g>
<!-- 17&#45;&gt;16 -->
<g id="edge24" class="edge">
<title>17&#45;&gt;16</title>
<path fill="none" stroke="grey" stroke-width="2" d="M415.99,-431.89C414.53,-423.75 412.9,-414.68 411.41,-406.38"/>
<polygon fill="grey" stroke="grey" stroke-width="2" points="414.84,-405.64 409.62,-396.41 407.95,-406.87 414.84,-405.64"/>
</g>
<!-- 18 -->
<g id="node19" class="node">
<title>18</title>
<path fill="none" stroke="#56b1d8" stroke-width="2" d="M591,-396C591,-396 496,-396 496,-396 490,-396 484,-390 484,-384 484,-384 484,-372 484,-372 484,-366 490,-360 496,-360 496,-360 591,-360 591,-360 597,-360 603,-366 603,-372 603,-372 603,-384 603,-384 603,-390 597,-396 591,-396"/>
<text text-anchor="middle" x="543.5" y="-375.5" font-family="sans" font-size="10.00">constraint_filtering_1</text>
</g>
<!-- 18&#45;&gt;15 -->
<g id="edge23" class="edge">
<title>18&#45;&gt;15</title>
<path fill="none" stroke="grey" stroke-width="2" d="M514.14,-359.88C497.6,-350.23 476.81,-338.1 459.31,-327.89"/>
<polygon fill="grey" stroke="grey" stroke-width="2" points="460.9,-324.77 450.5,-322.75 457.37,-330.81 460.9,-324.77"/>
</g>
<!-- 19&#45;&gt;18 -->
<g id="edge26" class="edge">
<title>19&#45;&gt;18</title>
<path fill="none" stroke="grey" stroke-width="2" d="M546.89,-431.89C546.37,-423.84 545.8,-414.88 545.27,-406.66"/>
<polygon fill="grey" stroke="grey" stroke-width="2" points="548.75,-406.17 544.62,-396.41 541.76,-406.61 548.75,-406.17"/>
</g>
<!-- 20&#45;&gt;13 -->
<g id="edge19" class="edge">
<title>20&#45;&gt;13</title>
<path fill="none" stroke="grey" stroke-width="2" d="M471.98,-215.7C472.64,-207.98 473.44,-198.71 474.18,-190.11"/>
<polygon fill="grey" stroke="grey" stroke-width="2" points="477.67,-190.37 475.03,-180.1 470.69,-189.77 477.67,-190.37"/>
</g>
<!-- 21 -->
<g id="node22" class="node">
<title>21</title>
<path fill="none" stroke="#5692d8" stroke-width="2" d="M738,-108C738,-108 643,-108 643,-108 637,-108 631,-102 631,-96 631,-96 631,-84 631,-84 631,-78 637,-72 643,-72 643,-72 738,-72 738,-72 744,-72 750,-78 750,-84 750,-84 750,-96 750,-96 750,-102 744,-108 738,-108"/>
<text text-anchor="middle" x="690.5" y="-87.5" font-family="sans" font-size="10.00">constraint_filtering_3</text>
</g>
<!-- 21&#45;&gt;0 -->
<g id="edge3" class="edge">
<title>21&#45;&gt;0</title>
<path fill="none" stroke="grey" stroke-width="2" d="M670.23,-71.7C660,-62.97 647.44,-52.24 636.32,-42.75"/>
<polygon fill="grey" stroke="grey" stroke-width="2" points="638.41,-39.94 628.54,-36.1 633.87,-45.26 638.41,-39.94"/>
</g>
<!-- 22&#45;&gt;21 -->
<g id="edge29" class="edge">
<title>22&#45;&gt;21</title>
<path fill="none" stroke="grey" stroke-width="2" d="M700.29,-143.7C698.85,-135.98 697.13,-126.71 695.54,-118.11"/>
<polygon fill="grey" stroke="grey" stroke-width="2" points="698.94,-117.3 693.68,-108.1 692.06,-118.58 698.94,-117.3"/>
</g>
<!-- 23 -->
<g id="node24" class="node">
<title>23</title>
<path fill="none" stroke="#d85656" stroke-width="2" d="M758,-252C758,-252 663,-252 663,-252 657,-252 651,-246 651,-240 651,-240 651,-228 651,-228 651,-222 657,-216 663,-216 663,-216 758,-216 758,-216 764,-216 770,-222 770,-228 770,-228 770,-240 770,-240 770,-246 764,-252 758,-252"/>
<text text-anchor="middle" x="710.5" y="-237" font-family="sans" font-size="10.00">constraint_filtering_2</text>
<text text-anchor="middle" x="710.5" y="-226" font-family="sans" font-size="10.00">read: 1</text>
</g>
<!-- 23&#45;&gt;22 -->
<g id="edge30" class="edge">
<title>23&#45;&gt;22</title>
<path fill="none" stroke="grey" stroke-width="2" d="M708.77,-215.7C708,-207.98 707.07,-198.71 706.21,-190.11"/>
<polygon fill="grey" stroke="grey" stroke-width="2" points="709.69,-189.71 705.21,-180.1 702.72,-190.4 709.69,-189.71"/>
</g>
<!-- 24 -->
<g id="node25" class="node">
<title>24</title>
<path fill="none" stroke="#9fd856" stroke-width="2" d="M763.5,-324C763.5,-324 733.5,-324 733.5,-324 727.5,-324 721.5,-318 721.5,-312 721.5,-312 721.5,-300 721.5,-300 721.5,-294 727.5,-288 733.5,-288 733.5,-288 763.5,-288 763.5,-288 769.5,-288 775.5,-294 775.5,-300 775.5,-300 775.5,-312 775.5,-312 775.5,-318 769.5,-324 763.5,-324"/>
<text text-anchor="middle" x="748.5" y="-303.5" font-family="sans" font-size="10.00">prinseq</text>
</g>
<!-- 24&#45;&gt;23 -->
<g id="edge33" class="edge">
<title>24&#45;&gt;23</title>
<path fill="none" stroke="grey" stroke-width="2" d="M739.11,-287.7C734.74,-279.64 729.44,-269.89 724.6,-260.98"/>
<polygon fill="grey" stroke="grey" stroke-width="2" points="727.63,-259.22 719.79,-252.1 721.48,-262.56 727.63,-259.22"/>
</g>
<!-- 29 -->
<g id="node30" class="node">
<title>29</title>
<path fill="none" stroke="#d85656" stroke-width="2" d="M895,-252C895,-252 800,-252 800,-252 794,-252 788,-246 788,-240 788,-240 788,-228 788,-228 788,-222 794,-216 800,-216 800,-216 895,-216 895,-216 901,-216 907,-222 907,-228 907,-228 907,-240 907,-240 907,-246 901,-252 895,-252"/>
<text text-anchor="middle" x="847.5" y="-237" font-family="sans" font-size="10.00">constraint_filtering_2</text>
<text text-anchor="middle" x="847.5" y="-226" font-family="sans" font-size="10.00">read: 2</text>
</g>
<!-- 24&#45;&gt;29 -->
<g id="edge40" class="edge">
<title>24&#45;&gt;29</title>
<path fill="none" stroke="grey" stroke-width="2" d="M772.72,-287.88C785.42,-278.89 801.16,-267.76 814.92,-258.03"/>
<polygon fill="grey" stroke="grey" stroke-width="2" points="817.04,-260.82 823.19,-252.19 813,-255.11 817.04,-260.82"/>
</g>
<!-- 25 -->
<g id="node26" class="node">
<title>25</title>
<path fill="none" stroke="#56b1d8" stroke-width="2" d="M728,-396C728,-396 633,-396 633,-396 627,-396 621,-390 621,-384 621,-384 621,-372 621,-372 621,-366 627,-360 633,-360 633,-360 728,-360 728,-360 734,-360 740,-366 740,-372 740,-372 740,-384 740,-384 740,-390 734,-396 728,-396"/>
<text text-anchor="middle" x="680.5" y="-375.5" font-family="sans" font-size="10.00">constraint_filtering_1</text>
</g>
<!-- 25&#45;&gt;24 -->
<g id="edge34" class="edge">
<title>25&#45;&gt;24</title>
<path fill="none" stroke="grey" stroke-width="2" d="M697.31,-359.7C705.63,-351.14 715.81,-340.66 724.89,-331.3"/>
<polygon fill="grey" stroke="grey" stroke-width="2" points="727.43,-333.72 731.88,-324.1 722.41,-328.84 727.43,-333.72"/>
</g>
<!-- 26&#45;&gt;25 -->
<g id="edge36" class="edge">
<title>26&#45;&gt;25</title>
<path fill="none" stroke="grey" stroke-width="2" d="M676.43,-431.89C677.05,-423.84 677.74,-414.88 678.37,-406.66"/>
<polygon fill="grey" stroke="grey" stroke-width="2" points="681.88,-406.65 679.16,-396.41 674.9,-406.11 681.88,-406.65"/>
</g>
<!-- 27 -->
<g id="node28" class="node">
<title>27</title>
<path fill="none" stroke="#56b1d8" stroke-width="2" d="M865,-396C865,-396 770,-396 770,-396 764,-396 758,-390 758,-384 758,-384 758,-372 758,-372 758,-366 764,-360 770,-360 770,-360 865,-360 865,-360 871,-360 877,-366 877,-372 877,-372 877,-384 877,-384 877,-390 871,-396 865,-396"/>
<text text-anchor="middle" x="817.5" y="-375.5" font-family="sans" font-size="10.00">constraint_filtering_1</text>
</g>
<!-- 27&#45;&gt;24 -->
<g id="edge35" class="edge">
<title>27&#45;&gt;24</title>
<path fill="none" stroke="grey" stroke-width="2" d="M800.44,-359.7C792,-351.14 781.68,-340.66 772.46,-331.3"/>
<polygon fill="grey" stroke="grey" stroke-width="2" points="774.87,-328.77 765.36,-324.1 769.89,-333.68 774.87,-328.77"/>
</g>
<!-- 28&#45;&gt;27 -->
<g id="edge38" class="edge">
<title>28&#45;&gt;27</title>
<path fill="none" stroke="grey" stroke-width="2" d="M810.04,-431.89C811.19,-423.75 812.47,-414.68 813.64,-406.38"/>
<polygon fill="grey" stroke="grey" stroke-width="2" points="817.11,-406.8 815.04,-396.41 810.18,-405.82 817.11,-406.8"/>
</g>
<!-- 29&#45;&gt;22 -->
<g id="edge31" class="edge">
<title>29&#45;&gt;22</title>
<path fill="none" stroke="grey" stroke-width="2" d="M812.27,-215.88C791.97,-206 766.32,-193.54 745.03,-183.19"/>
<polygon fill="grey" stroke="grey" stroke-width="2" points="746.42,-179.97 735.9,-178.75 743.36,-186.27 746.42,-179.97"/>
</g>
<!-- 30 -->
<g id="node31" class="node">
<title>30</title>
<path fill="none" stroke="#5692d8" stroke-width="2" d="M956,-108C956,-108 861,-108 861,-108 855,-108 849,-102 849,-96 849,-96 849,-84 849,-84 849,-78 855,-72 861,-72 861,-72 956,-72 956,-72 962,-72 968,-78 968,-84 968,-84 968,-96 968,-96 968,-102 962,-108 956,-108"/>
<text text-anchor="middle" x="908.5" y="-87.5" font-family="sans" font-size="10.00">constraint_filtering_3</text>
</g>
<!-- 30&#45;&gt;0 -->
<g id="edge4" class="edge">
<title>30&#45;&gt;0</title>
<path fill="none" stroke="grey" stroke-width="2" d="M848.87,-75.09C788.28,-60.95 696.33,-39.49 645.52,-27.64"/>
<polygon fill="grey" stroke="grey" stroke-width="2" points="646.16,-24.19 635.62,-25.33 644.57,-31.01 646.16,-24.19"/>
</g>
<!-- 31&#45;&gt;30 -->
<g id="edge41" class="edge">
<title>31&#45;&gt;30</title>
<path fill="none" stroke="grey" stroke-width="2" d="M939.37,-143.7C934.65,-135.64 928.94,-125.89 923.72,-116.98"/>
<polygon fill="grey" stroke="grey" stroke-width="2" points="926.59,-114.96 918.52,-108.1 920.55,-118.5 926.59,-114.96"/>
</g>
<!-- 32 -->
<g id="node33" class="node">
<title>32</title>
<path fill="none" stroke="#d85656" stroke-width="2" d="M1032,-252C1032,-252 937,-252 937,-252 931,-252 925,-246 925,-240 925,-240 925,-228 925,-228 925,-222 931,-216 937,-216 937,-216 1032,-216 1032,-216 1038,-216 1044,-222 1044,-228 1044,-228 1044,-240 1044,-240 1044,-246 1038,-252 1032,-252"/>
<text text-anchor="middle" x="984.5" y="-237" font-family="sans" font-size="10.00">constraint_filtering_2</text>
<text text-anchor="middle" x="984.5" y="-226" font-family="sans" font-size="10.00">read: 1</text>
</g>
<!-- 32&#45;&gt;31 -->
<g id="edge42" class="edge">
<title>32&#45;&gt;31</title>
<path fill="none" stroke="grey" stroke-width="2" d="M975.85,-215.7C971.86,-207.73 967.05,-198.1 962.63,-189.26"/>
<polygon fill="grey" stroke="grey" stroke-width="2" points="965.65,-187.48 958.05,-180.1 959.39,-190.61 965.65,-187.48"/>
</g>
<!-- 33 -->
<g id="node34" class="node">
<title>33</title>
<path fill="none" stroke="#9fd856" stroke-width="2" d="M1007.5,-324C1007.5,-324 977.5,-324 977.5,-324 971.5,-324 965.5,-318 965.5,-312 965.5,-312 965.5,-300 965.5,-300 965.5,-294 971.5,-288 977.5,-288 977.5,-288 1007.5,-288 1007.5,-288 1013.5,-288 1019.5,-294 1019.5,-300 1019.5,-300 1019.5,-312 1019.5,-312 1019.5,-318 1013.5,-324 1007.5,-324"/>
<text text-anchor="middle" x="992.5" y="-303.5" font-family="sans" font-size="10.00">prinseq</text>
</g>
<!-- 33&#45;&gt;32 -->
<g id="edge45" class="edge">
<title>33&#45;&gt;32</title>
<path fill="none" stroke="grey" stroke-width="2" d="M990.52,-287.7C989.64,-279.98 988.58,-270.71 987.6,-262.11"/>
<polygon fill="grey" stroke="grey" stroke-width="2" points="991.07,-261.64 986.45,-252.1 984.11,-262.44 991.07,-261.64"/>
</g>
<!-- 38 -->
<g id="node39" class="node">
<title>38</title>
<path fill="none" stroke="#d85656" stroke-width="2" d="M1169,-252C1169,-252 1074,-252 1074,-252 1068,-252 1062,-246 1062,-240 1062,-240 1062,-228 1062,-228 1062,-222 1068,-216 1074,-216 1074,-216 1169,-216 1169,-216 1175,-216 1181,-222 1181,-228 1181,-228 1181,-240 1181,-240 1181,-246 1175,-252 1169,-252"/>
<text text-anchor="middle" x="1121.5" y="-237" font-family="sans" font-size="10.00">constraint_filtering_2</text>
<text text-anchor="middle" x="1121.5" y="-226" font-family="sans" font-size="10.00">read: 2</text>
</g>
<!-- 33&#45;&gt;38 -->
<g id="edge52" class="edge">
<title>33&#45;&gt;38</title>
<path fill="none" stroke="grey" stroke-width="2" d="M1019.54,-290.33C1037.35,-280.66 1061,-267.83 1081.03,-256.96"/>
<polygon fill="grey" stroke="grey" stroke-width="2" points="1082.83,-259.97 1089.95,-252.12 1079.49,-253.82 1082.83,-259.97"/>
</g>
<!-- 34 -->
<g id="node35" class="node">
<title>34</title>
<path fill="none" stroke="#56b1d8" stroke-width="2" d="M1002,-396C1002,-396 907,-396 907,-396 901,-396 895,-390 895,-384 895,-384 895,-372 895,-372 895,-366 901,-360 907,-360 907,-360 1002,-360 1002,-360 1008,-360 1014,-366 1014,-372 1014,-372 1014,-384 1014,-384 1014,-390 1008,-396 1002,-396"/>
<text text-anchor="middle" x="954.5" y="-375.5" font-family="sans" font-size="10.00">constraint_filtering_1</text>
</g>
<!-- 34&#45;&gt;33 -->
<g id="edge46" class="edge">
<title>34&#45;&gt;33</title>
<path fill="none" stroke="grey" stroke-width="2" d="M963.89,-359.7C968.26,-351.64 973.56,-341.89 978.4,-332.98"/>
<polygon fill="grey" stroke="grey" stroke-width="2" points="981.52,-334.56 983.21,-324.1 975.37,-331.22 981.52,-334.56"/>
</g>
<!-- 35&#45;&gt;34 -->
<g id="edge48" class="edge">
<title>35&#45;&gt;34</title>
<path fill="none" stroke="grey" stroke-width="2" d="M945.68,-431.89C947.04,-423.75 948.55,-414.68 949.94,-406.38"/>
<polygon fill="grey" stroke="grey" stroke-width="2" points="953.41,-406.85 951.6,-396.41 946.5,-405.7 953.41,-406.85"/>
</g>
<!-- 36 -->
<g id="node37" class="node">
<title>36</title>
<path fill="none" stroke="#56b1d8" stroke-width="2" d="M1139,-396C1139,-396 1044,-396 1044,-396 1038,-396 1032,-390 1032,-384 1032,-384 1032,-372 1032,-372 1032,-366 1038,-360 1044,-360 1044,-360 1139,-360 1139,-360 1145,-360 1151,-366 1151,-372 1151,-372 1151,-384 1151,-384 1151,-390 1145,-396 1139,-396"/>
<text text-anchor="middle" x="1091.5" y="-375.5" font-family="sans" font-size="10.00">constraint_filtering_1</text>
</g>
<!-- 36&#45;&gt;33 -->
<g id="edge47" class="edge">
<title>36&#45;&gt;33</title>
<path fill="none" stroke="grey" stroke-width="2" d="M1067.28,-359.88C1054.58,-350.89 1038.84,-339.76 1025.08,-330.03"/>
<polygon fill="grey" stroke="grey" stroke-width="2" points="1027,-327.11 1016.81,-324.19 1022.96,-332.82 1027,-327.11"/>
</g>
<!-- 37&#45;&gt;36 -->
<g id="edge50" class="edge">
<title>37&#45;&gt;36</title>
<path fill="none" stroke="grey" stroke-width="2" d="M1082.01,-431.89C1083.47,-423.75 1085.1,-414.68 1086.59,-406.38"/>
<polygon fill="grey" stroke="grey" stroke-width="2" points="1090.05,-406.87 1088.38,-396.41 1083.16,-405.64 1090.05,-406.87"/>
</g>
<!-- 38&#45;&gt;31 -->
<g id="edge43" class="edge">
<title>38&#45;&gt;31</title>
<path fill="none" stroke="grey" stroke-width="2" d="M1079.42,-215.88C1052.59,-204.95 1017.95,-190.86 991.18,-179.96"/>
<polygon fill="grey" stroke="grey" stroke-width="2" points="992.29,-176.64 981.71,-176.11 989.65,-183.12 992.29,-176.64"/>
</g>
</g>
</svg>
