<?xml version="1.0" encoding="UTF-8" standalone="no"?>
<!DOCTYPE svg PUBLIC "-//W3C//DTD SVG 1.1//EN"
 "http://www.w3.org/Graphics/SVG/1.1/DTD/svg11.dtd">
<!-- Generated by graphviz version 2.48.0 (20210717.2242)
 -->
<!-- Title: snakemake_dag Pages: 1 -->
<svg width="915pt" height="780pt"
 viewBox="0.00 0.00 914.50 780.00" xmlns="http://www.w3.org/2000/svg" xmlns:xlink="http://www.w3.org/1999/xlink">
<g id="graph0" class="graph" transform="scale(1 1) rotate(0) translate(4 776)">
<title>snakemake_dag</title>
<polygon fill="white" stroke="transparent" points="-4,4 -4,-776 910.5,-776 910.5,4 -4,4"/>
<!-- 0 -->
<g id="node1" class="node">
<title>0</title>
<path fill="none" stroke="#5673d8" stroke-width="2" d="M497.5,-36C497.5,-36 467.5,-36 467.5,-36 461.5,-36 455.5,-30 455.5,-24 455.5,-24 455.5,-12 455.5,-12 455.5,-6 461.5,0 467.5,0 467.5,0 497.5,0 497.5,0 503.5,0 509.5,-6 509.5,-12 509.5,-12 509.5,-24 509.5,-24 509.5,-30 503.5,-36 497.5,-36"/>
<text text-anchor="middle" x="482.5" y="-15.5" font-family="sans" font-size="10.00">all</text>
</g>
<!-- 1 -->
<g id="node2" class="node">
<title>1</title>
<path fill="none" stroke="#d85656" stroke-width="2" d="M336,-108C336,-108 267,-108 267,-108 261,-108 255,-102 255,-96 255,-96 255,-84 255,-84 255,-78 261,-72 267,-72 267,-72 336,-72 336,-72 342,-72 348,-78 348,-84 348,-84 348,-96 348,-96 348,-102 342,-108 336,-108"/>
<text text-anchor="middle" x="301.5" y="-87.5" font-family="sans" font-size="10.00">vsearch_cluster</text>
</g>
<!-- 1&#45;&gt;0 -->
<g id="edge1" class="edge">
<title>1&#45;&gt;0</title>
<path fill="none" stroke="grey" stroke-width="2" d="M345.78,-71.88C376.52,-59.98 417,-44.33 445.92,-33.15"/>
<polygon fill="grey" stroke="grey" stroke-width="2" points="447.19,-36.41 455.25,-29.54 444.66,-29.88 447.19,-36.41"/>
</g>
<!-- 2 -->
<g id="node3" class="node">
<title>2</title>
<path fill="none" stroke="#56b1d8" stroke-width="2" d="M317.5,-180C317.5,-180 253.5,-180 253.5,-180 247.5,-180 241.5,-174 241.5,-168 241.5,-168 241.5,-156 241.5,-156 241.5,-150 247.5,-144 253.5,-144 253.5,-144 317.5,-144 317.5,-144 323.5,-144 329.5,-150 329.5,-156 329.5,-156 329.5,-168 329.5,-168 329.5,-174 323.5,-180 317.5,-180"/>
<text text-anchor="middle" x="285.5" y="-159.5" font-family="sans" font-size="10.00">vsearch_derep</text>
</g>
<!-- 2&#45;&gt;1 -->
<g id="edge5" class="edge">
<title>2&#45;&gt;1</title>
<path fill="none" stroke="grey" stroke-width="2" d="M289.46,-143.7C291.22,-135.98 293.34,-126.71 295.3,-118.11"/>
<polygon fill="grey" stroke="grey" stroke-width="2" points="298.77,-118.63 297.59,-108.1 291.95,-117.07 298.77,-118.63"/>
</g>
<!-- 3 -->
<g id="node4" class="node">
<title>3</title>
<path fill="none" stroke="#88d856" stroke-width="2" d="M303,-252C303,-252 242,-252 242,-252 236,-252 230,-246 230,-240 230,-240 230,-228 230,-228 230,-222 236,-216 242,-216 242,-216 303,-216 303,-216 309,-216 315,-222 315,-228 315,-228 315,-240 315,-240 315,-246 309,-252 303,-252"/>
<text text-anchor="middle" x="272.5" y="-231.5" font-family="sans" font-size="10.00">copy_to_fasta</text>
</g>
<!-- 3&#45;&gt;2 -->
<g id="edge6" class="edge">
<title>3&#45;&gt;2</title>
<path fill="none" stroke="grey" stroke-width="2" d="M275.71,-215.7C277.15,-207.98 278.87,-198.71 280.46,-190.11"/>
<polygon fill="grey" stroke="grey" stroke-width="2" points="283.94,-190.58 282.32,-180.1 277.06,-189.3 283.94,-190.58"/>
</g>
<!-- 4 -->
<g id="node5" class="node">
<title>4</title>
<path fill="none" stroke="#56d0d8" stroke-width="2" d="M313.5,-324C313.5,-324 217.5,-324 217.5,-324 211.5,-324 205.5,-318 205.5,-312 205.5,-312 205.5,-300 205.5,-300 205.5,-294 211.5,-288 217.5,-288 217.5,-288 313.5,-288 313.5,-288 319.5,-288 325.5,-294 325.5,-300 325.5,-300 325.5,-312 325.5,-312 325.5,-318 319.5,-324 313.5,-324"/>
<text text-anchor="middle" x="265.5" y="-303.5" font-family="sans" font-size="10.00">constraint_filtering_3</text>
</g>
<!-- 4&#45;&gt;3 -->
<g id="edge7" class="edge">
<title>4&#45;&gt;3</title>
<path fill="none" stroke="grey" stroke-width="2" d="M267.23,-287.7C268,-279.98 268.93,-270.71 269.79,-262.11"/>
<polygon fill="grey" stroke="grey" stroke-width="2" points="273.28,-262.4 270.79,-252.1 266.31,-261.71 273.28,-262.4"/>
</g>
<!-- 5 -->
<g id="node6" class="node">
<title>5</title>
<path fill="none" stroke="#d8d356" stroke-width="2" d="M285.5,-396C285.5,-396 245.5,-396 245.5,-396 239.5,-396 233.5,-390 233.5,-384 233.5,-384 233.5,-372 233.5,-372 233.5,-366 239.5,-360 245.5,-360 245.5,-360 285.5,-360 285.5,-360 291.5,-360 297.5,-366 297.5,-372 297.5,-372 297.5,-384 297.5,-384 297.5,-390 291.5,-396 285.5,-396"/>
<text text-anchor="middle" x="265.5" y="-375.5" font-family="sans" font-size="10.00">assembly</text>
</g>
<!-- 5&#45;&gt;4 -->
<g id="edge8" class="edge">
<title>5&#45;&gt;4</title>
<path fill="none" stroke="grey" stroke-width="2" d="M265.5,-359.7C265.5,-351.98 265.5,-342.71 265.5,-334.11"/>
<polygon fill="grey" stroke="grey" stroke-width="2" points="269,-334.1 265.5,-324.1 262,-334.1 269,-334.1"/>
</g>
<!-- 6 -->
<g id="node7" class="node">
<title>6</title>
<path fill="none" stroke="#68d856" stroke-width="2" d="M253.5,-468C253.5,-468 157.5,-468 157.5,-468 151.5,-468 145.5,-462 145.5,-456 145.5,-456 145.5,-444 145.5,-444 145.5,-438 151.5,-432 157.5,-432 157.5,-432 253.5,-432 253.5,-432 259.5,-432 265.5,-438 265.5,-444 265.5,-444 265.5,-456 265.5,-456 265.5,-462 259.5,-468 253.5,-468"/>
<text text-anchor="middle" x="205.5" y="-447.5" font-family="sans" font-size="10.00">constraint_filtering_2</text>
</g>
<!-- 6&#45;&gt;5 -->
<g id="edge9" class="edge">
<title>6&#45;&gt;5</title>
<path fill="none" stroke="grey" stroke-width="2" d="M220.33,-431.7C227.52,-423.3 236.3,-413.07 244.19,-403.86"/>
<polygon fill="grey" stroke="grey" stroke-width="2" points="246.99,-405.97 250.84,-396.1 241.67,-401.42 246.99,-405.97"/>
</g>
<!-- 7 -->
<g id="node8" class="node">
<title>7</title>
<path fill="none" stroke="#56d863" stroke-width="2" d="M190.5,-540C190.5,-540 160.5,-540 160.5,-540 154.5,-540 148.5,-534 148.5,-528 148.5,-528 148.5,-516 148.5,-516 148.5,-510 154.5,-504 160.5,-504 160.5,-504 190.5,-504 190.5,-504 196.5,-504 202.5,-510 202.5,-516 202.5,-516 202.5,-528 202.5,-528 202.5,-534 196.5,-540 190.5,-540"/>
<text text-anchor="middle" x="175.5" y="-519.5" font-family="sans" font-size="10.00">prinseq</text>
</g>
<!-- 7&#45;&gt;6 -->
<g id="edge11" class="edge">
<title>7&#45;&gt;6</title>
<path fill="none" stroke="grey" stroke-width="2" d="M182.92,-503.7C186.29,-495.81 190.37,-486.3 194.12,-477.55"/>
<polygon fill="grey" stroke="grey" stroke-width="2" points="197.45,-478.67 198.17,-468.1 191.01,-475.92 197.45,-478.67"/>
</g>
<!-- 8 -->
<g id="node9" class="node">
<title>8</title>
<path fill="none" stroke="#d89556" stroke-width="2" d="M208.5,-612C208.5,-612 112.5,-612 112.5,-612 106.5,-612 100.5,-606 100.5,-600 100.5,-600 100.5,-588 100.5,-588 100.5,-582 106.5,-576 112.5,-576 112.5,-576 208.5,-576 208.5,-576 214.5,-576 220.5,-582 220.5,-588 220.5,-588 220.5,-600 220.5,-600 220.5,-606 214.5,-612 208.5,-612"/>
<text text-anchor="middle" x="160.5" y="-591.5" font-family="sans" font-size="10.00">constraint_filtering_1</text>
</g>
<!-- 8&#45;&gt;7 -->
<g id="edge12" class="edge">
<title>8&#45;&gt;7</title>
<path fill="none" stroke="grey" stroke-width="2" d="M164.21,-575.7C165.86,-567.98 167.85,-558.71 169.69,-550.11"/>
<polygon fill="grey" stroke="grey" stroke-width="2" points="173.16,-550.62 171.83,-540.1 166.32,-549.15 173.16,-550.62"/>
</g>
<!-- 9 -->
<g id="node10" class="node">
<title>9</title>
<path fill="none" stroke="#d8b456" stroke-width="2" d="M83,-700C83,-700 12,-700 12,-700 6,-700 0,-694 0,-688 0,-688 0,-660 0,-660 0,-654 6,-648 12,-648 12,-648 83,-648 83,-648 89,-648 95,-654 95,-660 95,-660 95,-688 95,-688 95,-694 89,-700 83,-700"/>
<text text-anchor="middle" x="47.5" y="-688" font-family="sans" font-size="10.00">unzip</text>
<text text-anchor="middle" x="47.5" y="-677" font-family="sans" font-size="10.00">read: 1</text>
<text text-anchor="middle" x="47.5" y="-666" font-family="sans" font-size="10.00">sample: A071SE</text>
<text text-anchor="middle" x="47.5" y="-655" font-family="sans" font-size="10.00">unit: A</text>
</g>
<!-- 9&#45;&gt;8 -->
<g id="edge13" class="edge">
<title>9&#45;&gt;8</title>
<path fill="none" stroke="grey" stroke-width="2" d="M83.88,-647.89C97.74,-638.32 113.47,-627.46 127.05,-618.09"/>
<polygon fill="grey" stroke="grey" stroke-width="2" points="129.38,-620.73 135.63,-612.17 125.41,-614.97 129.38,-620.73"/>
</g>
<!-- 10 -->
<g id="node11" class="node">
<title>10</title>
<path fill="none" stroke="#bed856" stroke-width="2" d="M470,-772C470,-772 419,-772 419,-772 413,-772 407,-766 407,-760 407,-760 407,-748 407,-748 407,-742 413,-736 419,-736 419,-736 470,-736 470,-736 476,-736 482,-742 482,-748 482,-748 482,-760 482,-760 482,-766 476,-772 470,-772"/>
<text text-anchor="middle" x="444.5" y="-751.5" font-family="sans" font-size="10.00">demultiplex</text>
</g>
<!-- 10&#45;&gt;9 -->
<g id="edge15" class="edge">
<title>10&#45;&gt;9</title>
<path fill="none" stroke="grey" stroke-width="2" d="M406.95,-750.44C345.18,-745.52 218.4,-732.49 105.02,-700.15"/>
<polygon fill="grey" stroke="grey" stroke-width="2" points="105.72,-696.71 95.14,-697.27 103.77,-703.43 105.72,-696.71"/>
</g>
<!-- 11 -->
<g id="node12" class="node">
<title>11</title>
<path fill="none" stroke="#d8b456" stroke-width="2" d="M196,-700C196,-700 125,-700 125,-700 119,-700 113,-694 113,-688 113,-688 113,-660 113,-660 113,-654 119,-648 125,-648 125,-648 196,-648 196,-648 202,-648 208,-654 208,-660 208,-660 208,-688 208,-688 208,-694 202,-700 196,-700"/>
<text text-anchor="middle" x="160.5" y="-688" font-family="sans" font-size="10.00">unzip</text>
<text text-anchor="middle" x="160.5" y="-677" font-family="sans" font-size="10.00">read: 2</text>
<text text-anchor="middle" x="160.5" y="-666" font-family="sans" font-size="10.00">sample: A071SE</text>
<text text-anchor="middle" x="160.5" y="-655" font-family="sans" font-size="10.00">unit: A</text>
</g>
<!-- 10&#45;&gt;11 -->
<g id="edge16" class="edge">
<title>10&#45;&gt;11</title>
<path fill="none" stroke="grey" stroke-width="2" d="M406.77,-746.52C363.01,-738.52 288.72,-723.38 217.76,-700.2"/>
<polygon fill="grey" stroke="grey" stroke-width="2" points="218.81,-696.86 208.22,-697.03 216.61,-703.5 218.81,-696.86"/>
</g>
<!-- 21 -->
<g id="node22" class="node">
<title>21</title>
<path fill="none" stroke="#d8b456" stroke-width="2" d="M309,-700C309,-700 238,-700 238,-700 232,-700 226,-694 226,-688 226,-688 226,-660 226,-660 226,-654 232,-648 238,-648 238,-648 309,-648 309,-648 315,-648 321,-654 321,-660 321,-660 321,-688 321,-688 321,-694 315,-700 309,-700"/>
<text text-anchor="middle" x="273.5" y="-688" font-family="sans" font-size="10.00">unzip</text>
<text text-anchor="middle" x="273.5" y="-677" font-family="sans" font-size="10.00">read: 1</text>
<text text-anchor="middle" x="273.5" y="-666" font-family="sans" font-size="10.00">sample: A071SE</text>
<text text-anchor="middle" x="273.5" y="-655" font-family="sans" font-size="10.00">unit: B</text>
</g>
<!-- 10&#45;&gt;21 -->
<g id="edge27" class="edge">
<title>10&#45;&gt;21</title>
<path fill="none" stroke="grey" stroke-width="2" d="M406.97,-735.88C384.47,-725.62 355.41,-712.36 330.16,-700.84"/>
<polygon fill="grey" stroke="grey" stroke-width="2" points="331.59,-697.65 321.04,-696.69 328.69,-704.02 331.59,-697.65"/>
</g>
<!-- 22 -->
<g id="node23" class="node">
<title>22</title>
<path fill="none" stroke="#d8b456" stroke-width="2" d="M422,-700C422,-700 351,-700 351,-700 345,-700 339,-694 339,-688 339,-688 339,-660 339,-660 339,-654 345,-648 351,-648 351,-648 422,-648 422,-648 428,-648 434,-654 434,-660 434,-660 434,-688 434,-688 434,-694 428,-700 422,-700"/>
<text text-anchor="middle" x="386.5" y="-688" font-family="sans" font-size="10.00">unzip</text>
<text text-anchor="middle" x="386.5" y="-677" font-family="sans" font-size="10.00">read: 2</text>
<text text-anchor="middle" x="386.5" y="-666" font-family="sans" font-size="10.00">sample: A071SE</text>
<text text-anchor="middle" x="386.5" y="-655" font-family="sans" font-size="10.00">unit: B</text>
</g>
<!-- 10&#45;&gt;22 -->
<g id="edge28" class="edge">
<title>10&#45;&gt;22</title>
<path fill="none" stroke="grey" stroke-width="2" d="M431.63,-735.69C425.64,-727.64 418.31,-717.77 411.3,-708.36"/>
<polygon fill="grey" stroke="grey" stroke-width="2" points="414.06,-706.19 405.28,-700.26 408.44,-710.37 414.06,-706.19"/>
</g>
<!-- 31 -->
<g id="node32" class="node">
<title>31</title>
<path fill="none" stroke="#d8b456" stroke-width="2" d="M540.5,-700C540.5,-700 464.5,-700 464.5,-700 458.5,-700 452.5,-694 452.5,-688 452.5,-688 452.5,-660 452.5,-660 452.5,-654 458.5,-648 464.5,-648 464.5,-648 540.5,-648 540.5,-648 546.5,-648 552.5,-654 552.5,-660 552.5,-660 552.5,-688 552.5,-688 552.5,-694 546.5,-700 540.5,-700"/>
<text text-anchor="middle" x="502.5" y="-688" font-family="sans" font-size="10.00">unzip</text>
<text text-anchor="middle" x="502.5" y="-677" font-family="sans" font-size="10.00">read: 1</text>
<text text-anchor="middle" x="502.5" y="-666" font-family="sans" font-size="10.00">sample: A172WA</text>
<text text-anchor="middle" x="502.5" y="-655" font-family="sans" font-size="10.00">unit: A</text>
</g>
<!-- 10&#45;&gt;31 -->
<g id="edge39" class="edge">
<title>10&#45;&gt;31</title>
<path fill="none" stroke="grey" stroke-width="2" d="M457.37,-735.69C463.36,-727.64 470.69,-717.77 477.7,-708.36"/>
<polygon fill="grey" stroke="grey" stroke-width="2" points="480.56,-710.37 483.72,-700.26 474.94,-706.19 480.56,-710.37"/>
</g>
<!-- 32 -->
<g id="node33" class="node">
<title>32</title>
<path fill="none" stroke="#d8b456" stroke-width="2" d="M658.5,-700C658.5,-700 582.5,-700 582.5,-700 576.5,-700 570.5,-694 570.5,-688 570.5,-688 570.5,-660 570.5,-660 570.5,-654 576.5,-648 582.5,-648 582.5,-648 658.5,-648 658.5,-648 664.5,-648 670.5,-654 670.5,-660 670.5,-660 670.5,-688 670.5,-688 670.5,-694 664.5,-700 658.5,-700"/>
<text text-anchor="middle" x="620.5" y="-688" font-family="sans" font-size="10.00">unzip</text>
<text text-anchor="middle" x="620.5" y="-677" font-family="sans" font-size="10.00">read: 2</text>
<text text-anchor="middle" x="620.5" y="-666" font-family="sans" font-size="10.00">sample: A172WA</text>
<text text-anchor="middle" x="620.5" y="-655" font-family="sans" font-size="10.00">unit: A</text>
</g>
<!-- 10&#45;&gt;32 -->
<g id="edge40" class="edge">
<title>10&#45;&gt;32</title>
<path fill="none" stroke="grey" stroke-width="2" d="M482.26,-736.27C505.2,-726.1 534.98,-712.9 561.03,-701.35"/>
<polygon fill="grey" stroke="grey" stroke-width="2" points="562.72,-704.44 570.44,-697.18 559.88,-698.04 562.72,-704.44"/>
</g>
<!-- 41 -->
<g id="node42" class="node">
<title>41</title>
<path fill="none" stroke="#d8b456" stroke-width="2" d="M776.5,-700C776.5,-700 700.5,-700 700.5,-700 694.5,-700 688.5,-694 688.5,-688 688.5,-688 688.5,-660 688.5,-660 688.5,-654 694.5,-648 700.5,-648 700.5,-648 776.5,-648 776.5,-648 782.5,-648 788.5,-654 788.5,-660 788.5,-660 788.5,-688 788.5,-688 788.5,-694 782.5,-700 776.5,-700"/>
<text text-anchor="middle" x="738.5" y="-688" font-family="sans" font-size="10.00">unzip</text>
<text text-anchor="middle" x="738.5" y="-677" font-family="sans" font-size="10.00">read: 1</text>
<text text-anchor="middle" x="738.5" y="-666" font-family="sans" font-size="10.00">sample: A172WA</text>
<text text-anchor="middle" x="738.5" y="-655" font-family="sans" font-size="10.00">unit: B</text>
</g>
<!-- 10&#45;&gt;41 -->
<g id="edge51" class="edge">
<title>10&#45;&gt;41</title>
<path fill="none" stroke="grey" stroke-width="2" d="M482.09,-746.67C526.94,-738.65 604.22,-723.36 678.25,-700.18"/>
<polygon fill="grey" stroke="grey" stroke-width="2" points="679.73,-703.39 688.19,-697.02 677.6,-696.72 679.73,-703.39"/>
</g>
<!-- 42 -->
<g id="node43" class="node">
<title>42</title>
<path fill="none" stroke="#d8b456" stroke-width="2" d="M894.5,-700C894.5,-700 818.5,-700 818.5,-700 812.5,-700 806.5,-694 806.5,-688 806.5,-688 806.5,-660 806.5,-660 806.5,-654 812.5,-648 818.5,-648 818.5,-648 894.5,-648 894.5,-648 900.5,-648 906.5,-654 906.5,-660 906.5,-660 906.5,-688 906.5,-688 906.5,-694 900.5,-700 894.5,-700"/>
<text text-anchor="middle" x="856.5" y="-688" font-family="sans" font-size="10.00">unzip</text>
<text text-anchor="middle" x="856.5" y="-677" font-family="sans" font-size="10.00">read: 2</text>
<text text-anchor="middle" x="856.5" y="-666" font-family="sans" font-size="10.00">sample: A172WA</text>
<text text-anchor="middle" x="856.5" y="-655" font-family="sans" font-size="10.00">unit: B</text>
</g>
<!-- 10&#45;&gt;42 -->
<g id="edge52" class="edge">
<title>10&#45;&gt;42</title>
<path fill="none" stroke="grey" stroke-width="2" d="M482.25,-750.46C545.77,-745.52 677.89,-732.37 796.32,-700.04"/>
<polygon fill="grey" stroke="grey" stroke-width="2" points="797.58,-703.32 806.27,-697.27 795.7,-696.58 797.58,-703.32"/>
</g>
<!-- 11&#45;&gt;8 -->
<g id="edge14" class="edge">
<title>11&#45;&gt;8</title>
<path fill="none" stroke="grey" stroke-width="2" d="M160.5,-647.89C160.5,-639.84 160.5,-630.88 160.5,-622.66"/>
<polygon fill="grey" stroke="grey" stroke-width="2" points="164,-622.41 160.5,-612.41 157,-622.41 164,-622.41"/>
</g>
<!-- 12 -->
<g id="node13" class="node">
<title>12</title>
<path fill="none" stroke="#56d8c1" stroke-width="2" d="M503,-468C503,-468 442,-468 442,-468 436,-468 430,-462 430,-456 430,-456 430,-444 430,-444 430,-438 436,-432 442,-432 442,-432 503,-432 503,-432 509,-432 515,-438 515,-444 515,-444 515,-456 515,-456 515,-462 509,-468 503,-468"/>
<text text-anchor="middle" x="472.5" y="-447.5" font-family="sans" font-size="10.00">define_primer</text>
</g>
<!-- 12&#45;&gt;5 -->
<g id="edge10" class="edge">
<title>12&#45;&gt;5</title>
<path fill="none" stroke="grey" stroke-width="2" d="M429.86,-434.58C393.94,-422.44 342.86,-405.16 307.21,-393.11"/>
<polygon fill="grey" stroke="grey" stroke-width="2" points="308.18,-389.74 297.59,-389.85 305.94,-396.37 308.18,-389.74"/>
</g>
<!-- 17 -->
<g id="node18" class="node">
<title>17</title>
<path fill="none" stroke="#d8d356" stroke-width="2" d="M423.5,-396C423.5,-396 383.5,-396 383.5,-396 377.5,-396 371.5,-390 371.5,-384 371.5,-384 371.5,-372 371.5,-372 371.5,-366 377.5,-360 383.5,-360 383.5,-360 423.5,-360 423.5,-360 429.5,-360 435.5,-366 435.5,-372 435.5,-372 435.5,-384 435.5,-384 435.5,-390 429.5,-396 423.5,-396"/>
<text text-anchor="middle" x="403.5" y="-375.5" font-family="sans" font-size="10.00">assembly</text>
</g>
<!-- 12&#45;&gt;17 -->
<g id="edge22" class="edge">
<title>12&#45;&gt;17</title>
<path fill="none" stroke="grey" stroke-width="2" d="M455.44,-431.7C447,-423.14 436.68,-412.66 427.46,-403.3"/>
<polygon fill="grey" stroke="grey" stroke-width="2" points="429.87,-400.77 420.36,-396.1 424.89,-405.68 429.87,-400.77"/>
</g>
<!-- 27 -->
<g id="node28" class="node">
<title>27</title>
<path fill="none" stroke="#d8d356" stroke-width="2" d="M561.5,-396C561.5,-396 521.5,-396 521.5,-396 515.5,-396 509.5,-390 509.5,-384 509.5,-384 509.5,-372 509.5,-372 509.5,-366 515.5,-360 521.5,-360 521.5,-360 561.5,-360 561.5,-360 567.5,-360 573.5,-366 573.5,-372 573.5,-372 573.5,-384 573.5,-384 573.5,-390 567.5,-396 561.5,-396"/>
<text text-anchor="middle" x="541.5" y="-375.5" font-family="sans" font-size="10.00">assembly</text>
</g>
<!-- 12&#45;&gt;27 -->
<g id="edge34" class="edge">
<title>12&#45;&gt;27</title>
<path fill="none" stroke="grey" stroke-width="2" d="M489.56,-431.7C498,-423.14 508.32,-412.66 517.54,-403.3"/>
<polygon fill="grey" stroke="grey" stroke-width="2" points="520.11,-405.68 524.64,-396.1 515.13,-400.77 520.11,-405.68"/>
</g>
<!-- 37 -->
<g id="node38" class="node">
<title>37</title>
<path fill="none" stroke="#d8d356" stroke-width="2" d="M699.5,-396C699.5,-396 659.5,-396 659.5,-396 653.5,-396 647.5,-390 647.5,-384 647.5,-384 647.5,-372 647.5,-372 647.5,-366 653.5,-360 659.5,-360 659.5,-360 699.5,-360 699.5,-360 705.5,-360 711.5,-366 711.5,-372 711.5,-372 711.5,-384 711.5,-384 711.5,-390 705.5,-396 699.5,-396"/>
<text text-anchor="middle" x="679.5" y="-375.5" font-family="sans" font-size="10.00">assembly</text>
</g>
<!-- 12&#45;&gt;37 -->
<g id="edge46" class="edge">
<title>12&#45;&gt;37</title>
<path fill="none" stroke="grey" stroke-width="2" d="M515.14,-434.58C551.06,-422.44 602.14,-405.16 637.79,-393.11"/>
<polygon fill="grey" stroke="grey" stroke-width="2" points="639.06,-396.37 647.41,-389.85 636.82,-389.74 639.06,-396.37"/>
</g>
<!-- 13 -->
<g id="node14" class="node">
<title>13</title>
<path fill="none" stroke="#d85656" stroke-width="2" d="M460,-108C460,-108 391,-108 391,-108 385,-108 379,-102 379,-96 379,-96 379,-84 379,-84 379,-78 385,-72 391,-72 391,-72 460,-72 460,-72 466,-72 472,-78 472,-84 472,-84 472,-96 472,-96 472,-102 466,-108 460,-108"/>
<text text-anchor="middle" x="425.5" y="-87.5" font-family="sans" font-size="10.00">vsearch_cluster</text>
</g>
<!-- 13&#45;&gt;0 -->
<g id="edge2" class="edge">
<title>13&#45;&gt;0</title>
<path fill="none" stroke="grey" stroke-width="2" d="M439.59,-71.7C446.42,-63.3 454.76,-53.07 462.26,-43.86"/>
<polygon fill="grey" stroke="grey" stroke-width="2" points="464.97,-46.07 468.57,-36.1 459.54,-41.65 464.97,-46.07"/>
</g>
<!-- 14 -->
<g id="node15" class="node">
<title>14</title>
<path fill="none" stroke="#56b1d8" stroke-width="2" d="M450.5,-180C450.5,-180 386.5,-180 386.5,-180 380.5,-180 374.5,-174 374.5,-168 374.5,-168 374.5,-156 374.5,-156 374.5,-150 380.5,-144 386.5,-144 386.5,-144 450.5,-144 450.5,-144 456.5,-144 462.5,-150 462.5,-156 462.5,-156 462.5,-168 462.5,-168 462.5,-174 456.5,-180 450.5,-180"/>
<text text-anchor="middle" x="418.5" y="-159.5" font-family="sans" font-size="10.00">vsearch_derep</text>
</g>
<!-- 14&#45;&gt;13 -->
<g id="edge17" class="edge">
<title>14&#45;&gt;13</title>
<path fill="none" stroke="grey" stroke-width="2" d="M420.23,-143.7C421,-135.98 421.93,-126.71 422.79,-118.11"/>
<polygon fill="grey" stroke="grey" stroke-width="2" points="426.28,-118.4 423.79,-108.1 419.31,-117.71 426.28,-118.4"/>
</g>
<!-- 15 -->
<g id="node16" class="node">
<title>15</title>
<path fill="none" stroke="#88d856" stroke-width="2" d="M436,-252C436,-252 375,-252 375,-252 369,-252 363,-246 363,-240 363,-240 363,-228 363,-228 363,-222 369,-216 375,-216 375,-216 436,-216 436,-216 442,-216 448,-222 448,-228 448,-228 448,-240 448,-240 448,-246 442,-252 436,-252"/>
<text text-anchor="middle" x="405.5" y="-231.5" font-family="sans" font-size="10.00">copy_to_fasta</text>
</g>
<!-- 15&#45;&gt;14 -->
<g id="edge18" class="edge">
<title>15&#45;&gt;14</title>
<path fill="none" stroke="grey" stroke-width="2" d="M408.71,-215.7C410.15,-207.98 411.87,-198.71 413.46,-190.11"/>
<polygon fill="grey" stroke="grey" stroke-width="2" points="416.94,-190.58 415.32,-180.1 410.06,-189.3 416.94,-190.58"/>
</g>
<!-- 16 -->
<g id="node17" class="node">
<title>16</title>
<path fill="none" stroke="#56d0d8" stroke-width="2" d="M451.5,-324C451.5,-324 355.5,-324 355.5,-324 349.5,-324 343.5,-318 343.5,-312 343.5,-312 343.5,-300 343.5,-300 343.5,-294 349.5,-288 355.5,-288 355.5,-288 451.5,-288 451.5,-288 457.5,-288 463.5,-294 463.5,-300 463.5,-300 463.5,-312 463.5,-312 463.5,-318 457.5,-324 451.5,-324"/>
<text text-anchor="middle" x="403.5" y="-303.5" font-family="sans" font-size="10.00">constraint_filtering_3</text>
</g>
<!-- 16&#45;&gt;15 -->
<g id="edge19" class="edge">
<title>16&#45;&gt;15</title>
<path fill="none" stroke="grey" stroke-width="2" d="M403.99,-287.7C404.21,-279.98 404.48,-270.71 404.73,-262.11"/>
<polygon fill="grey" stroke="grey" stroke-width="2" points="408.22,-262.2 405.01,-252.1 401.23,-262 408.22,-262.2"/>
</g>
<!-- 17&#45;&gt;16 -->
<g id="edge20" class="edge">
<title>17&#45;&gt;16</title>
<path fill="none" stroke="grey" stroke-width="2" d="M403.5,-359.7C403.5,-351.98 403.5,-342.71 403.5,-334.11"/>
<polygon fill="grey" stroke="grey" stroke-width="2" points="407,-334.1 403.5,-324.1 400,-334.1 407,-334.1"/>
</g>
<!-- 18 -->
<g id="node19" class="node">
<title>18</title>
<path fill="none" stroke="#68d856" stroke-width="2" d="M399.5,-468C399.5,-468 303.5,-468 303.5,-468 297.5,-468 291.5,-462 291.5,-456 291.5,-456 291.5,-444 291.5,-444 291.5,-438 297.5,-432 303.5,-432 303.5,-432 399.5,-432 399.5,-432 405.5,-432 411.5,-438 411.5,-444 411.5,-444 411.5,-456 411.5,-456 411.5,-462 405.5,-468 399.5,-468"/>
<text text-anchor="middle" x="351.5" y="-447.5" font-family="sans" font-size="10.00">constraint_filtering_2</text>
</g>
<!-- 18&#45;&gt;17 -->
<g id="edge21" class="edge">
<title>18&#45;&gt;17</title>
<path fill="none" stroke="grey" stroke-width="2" d="M364.35,-431.7C370.53,-423.39 378.04,-413.28 384.82,-404.14"/>
<polygon fill="grey" stroke="grey" stroke-width="2" points="387.64,-406.22 390.79,-396.1 382.02,-402.04 387.64,-406.22"/>
</g>
<!-- 19 -->
<g id="node20" class="node">
<title>19</title>
<path fill="none" stroke="#56d863" stroke-width="2" d="M366.5,-540C366.5,-540 336.5,-540 336.5,-540 330.5,-540 324.5,-534 324.5,-528 324.5,-528 324.5,-516 324.5,-516 324.5,-510 330.5,-504 336.5,-504 336.5,-504 366.5,-504 366.5,-504 372.5,-504 378.5,-510 378.5,-516 378.5,-516 378.5,-528 378.5,-528 378.5,-534 372.5,-540 366.5,-540"/>
<text text-anchor="middle" x="351.5" y="-519.5" font-family="sans" font-size="10.00">prinseq</text>
</g>
<!-- 19&#45;&gt;18 -->
<g id="edge23" class="edge">
<title>19&#45;&gt;18</title>
<path fill="none" stroke="grey" stroke-width="2" d="M351.5,-503.7C351.5,-495.98 351.5,-486.71 351.5,-478.11"/>
<polygon fill="grey" stroke="grey" stroke-width="2" points="355,-478.1 351.5,-468.1 348,-478.1 355,-478.1"/>
</g>
<!-- 20 -->
<g id="node21" class="node">
<title>20</title>
<path fill="none" stroke="#d89556" stroke-width="2" d="M399.5,-612C399.5,-612 303.5,-612 303.5,-612 297.5,-612 291.5,-606 291.5,-600 291.5,-600 291.5,-588 291.5,-588 291.5,-582 297.5,-576 303.5,-576 303.5,-576 399.5,-576 399.5,-576 405.5,-576 411.5,-582 411.5,-588 411.5,-588 411.5,-600 411.5,-600 411.5,-606 405.5,-612 399.5,-612"/>
<text text-anchor="middle" x="351.5" y="-591.5" font-family="sans" font-size="10.00">constraint_filtering_1</text>
</g>
<!-- 20&#45;&gt;19 -->
<g id="edge24" class="edge">
<title>20&#45;&gt;19</title>
<path fill="none" stroke="grey" stroke-width="2" d="M351.5,-575.7C351.5,-567.98 351.5,-558.71 351.5,-550.11"/>
<polygon fill="grey" stroke="grey" stroke-width="2" points="355,-550.1 351.5,-540.1 348,-550.1 355,-550.1"/>
</g>
<!-- 21&#45;&gt;20 -->
<g id="edge25" class="edge">
<title>21&#45;&gt;20</title>
<path fill="none" stroke="grey" stroke-width="2" d="M298.61,-647.89C307.66,-638.84 317.85,-628.65 326.85,-619.65"/>
<polygon fill="grey" stroke="grey" stroke-width="2" points="329.49,-621.96 334.09,-612.41 324.54,-617.01 329.49,-621.96"/>
</g>
<!-- 22&#45;&gt;20 -->
<g id="edge26" class="edge">
<title>22&#45;&gt;20</title>
<path fill="none" stroke="grey" stroke-width="2" d="M375.23,-647.89C371.46,-639.48 367.24,-630.07 363.42,-621.55"/>
<polygon fill="grey" stroke="grey" stroke-width="2" points="366.6,-620.1 359.31,-612.41 360.21,-622.97 366.6,-620.1"/>
</g>
<!-- 23 -->
<g id="node24" class="node">
<title>23</title>
<path fill="none" stroke="#d85656" stroke-width="2" d="M574,-108C574,-108 505,-108 505,-108 499,-108 493,-102 493,-96 493,-96 493,-84 493,-84 493,-78 499,-72 505,-72 505,-72 574,-72 574,-72 580,-72 586,-78 586,-84 586,-84 586,-96 586,-96 586,-102 580,-108 574,-108"/>
<text text-anchor="middle" x="539.5" y="-87.5" font-family="sans" font-size="10.00">vsearch_cluster</text>
</g>
<!-- 23&#45;&gt;0 -->
<g id="edge3" class="edge">
<title>23&#45;&gt;0</title>
<path fill="none" stroke="grey" stroke-width="2" d="M525.41,-71.7C518.58,-63.3 510.24,-53.07 502.74,-43.86"/>
<polygon fill="grey" stroke="grey" stroke-width="2" points="505.46,-41.65 496.43,-36.1 500.03,-46.07 505.46,-41.65"/>
</g>
<!-- 24 -->
<g id="node25" class="node">
<title>24</title>
<path fill="none" stroke="#56b1d8" stroke-width="2" d="M571.5,-180C571.5,-180 507.5,-180 507.5,-180 501.5,-180 495.5,-174 495.5,-168 495.5,-168 495.5,-156 495.5,-156 495.5,-150 501.5,-144 507.5,-144 507.5,-144 571.5,-144 571.5,-144 577.5,-144 583.5,-150 583.5,-156 583.5,-156 583.5,-168 583.5,-168 583.5,-174 577.5,-180 571.5,-180"/>
<text text-anchor="middle" x="539.5" y="-159.5" font-family="sans" font-size="10.00">vsearch_derep</text>
</g>
<!-- 24&#45;&gt;23 -->
<g id="edge29" class="edge">
<title>24&#45;&gt;23</title>
<path fill="none" stroke="grey" stroke-width="2" d="M539.5,-143.7C539.5,-135.98 539.5,-126.71 539.5,-118.11"/>
<polygon fill="grey" stroke="grey" stroke-width="2" points="543,-118.1 539.5,-108.1 536,-118.1 543,-118.1"/>
</g>
<!-- 25 -->
<g id="node26" class="node">
<title>25</title>
<path fill="none" stroke="#88d856" stroke-width="2" d="M571,-252C571,-252 510,-252 510,-252 504,-252 498,-246 498,-240 498,-240 498,-228 498,-228 498,-222 504,-216 510,-216 510,-216 571,-216 571,-216 577,-216 583,-222 583,-228 583,-228 583,-240 583,-240 583,-246 577,-252 571,-252"/>
<text text-anchor="middle" x="540.5" y="-231.5" font-family="sans" font-size="10.00">copy_to_fasta</text>
</g>
<!-- 25&#45;&gt;24 -->
<g id="edge30" class="edge">
<title>25&#45;&gt;24</title>
<path fill="none" stroke="grey" stroke-width="2" d="M540.25,-215.7C540.14,-207.98 540.01,-198.71 539.89,-190.11"/>
<polygon fill="grey" stroke="grey" stroke-width="2" points="543.39,-190.05 539.74,-180.1 536.39,-190.15 543.39,-190.05"/>
</g>
<!-- 26 -->
<g id="node27" class="node">
<title>26</title>
<path fill="none" stroke="#56d0d8" stroke-width="2" d="M589.5,-324C589.5,-324 493.5,-324 493.5,-324 487.5,-324 481.5,-318 481.5,-312 481.5,-312 481.5,-300 481.5,-300 481.5,-294 487.5,-288 493.5,-288 493.5,-288 589.5,-288 589.5,-288 595.5,-288 601.5,-294 601.5,-300 601.5,-300 601.5,-312 601.5,-312 601.5,-318 595.5,-324 589.5,-324"/>
<text text-anchor="middle" x="541.5" y="-303.5" font-family="sans" font-size="10.00">constraint_filtering_3</text>
</g>
<!-- 26&#45;&gt;25 -->
<g id="edge31" class="edge">
<title>26&#45;&gt;25</title>
<path fill="none" stroke="grey" stroke-width="2" d="M541.25,-287.7C541.14,-279.98 541.01,-270.71 540.89,-262.11"/>
<polygon fill="grey" stroke="grey" stroke-width="2" points="544.39,-262.05 540.74,-252.1 537.39,-262.15 544.39,-262.05"/>
</g>
<!-- 27&#45;&gt;26 -->
<g id="edge32" class="edge">
<title>27&#45;&gt;26</title>
<path fill="none" stroke="grey" stroke-width="2" d="M541.5,-359.7C541.5,-351.98 541.5,-342.71 541.5,-334.11"/>
<polygon fill="grey" stroke="grey" stroke-width="2" points="545,-334.1 541.5,-324.1 538,-334.1 545,-334.1"/>
</g>
<!-- 28 -->
<g id="node29" class="node">
<title>28</title>
<path fill="none" stroke="#68d856" stroke-width="2" d="M641.5,-468C641.5,-468 545.5,-468 545.5,-468 539.5,-468 533.5,-462 533.5,-456 533.5,-456 533.5,-444 533.5,-444 533.5,-438 539.5,-432 545.5,-432 545.5,-432 641.5,-432 641.5,-432 647.5,-432 653.5,-438 653.5,-444 653.5,-444 653.5,-456 653.5,-456 653.5,-462 647.5,-468 641.5,-468"/>
<text text-anchor="middle" x="593.5" y="-447.5" font-family="sans" font-size="10.00">constraint_filtering_2</text>
</g>
<!-- 28&#45;&gt;27 -->
<g id="edge33" class="edge">
<title>28&#45;&gt;27</title>
<path fill="none" stroke="grey" stroke-width="2" d="M580.65,-431.7C574.47,-423.39 566.96,-413.28 560.18,-404.14"/>
<polygon fill="grey" stroke="grey" stroke-width="2" points="562.98,-402.04 554.21,-396.1 557.36,-406.22 562.98,-402.04"/>
</g>
<!-- 29 -->
<g id="node30" class="node">
<title>29</title>
<path fill="none" stroke="#56d863" stroke-width="2" d="M608.5,-540C608.5,-540 578.5,-540 578.5,-540 572.5,-540 566.5,-534 566.5,-528 566.5,-528 566.5,-516 566.5,-516 566.5,-510 572.5,-504 578.5,-504 578.5,-504 608.5,-504 608.5,-504 614.5,-504 620.5,-510 620.5,-516 620.5,-516 620.5,-528 620.5,-528 620.5,-534 614.5,-540 608.5,-540"/>
<text text-anchor="middle" x="593.5" y="-519.5" font-family="sans" font-size="10.00">prinseq</text>
</g>
<!-- 29&#45;&gt;28 -->
<g id="edge35" class="edge">
<title>29&#45;&gt;28</title>
<path fill="none" stroke="grey" stroke-width="2" d="M593.5,-503.7C593.5,-495.98 593.5,-486.71 593.5,-478.11"/>
<polygon fill="grey" stroke="grey" stroke-width="2" points="597,-478.1 593.5,-468.1 590,-478.1 597,-478.1"/>
</g>
<!-- 30 -->
<g id="node31" class="node">
<title>30</title>
<path fill="none" stroke="#d89556" stroke-width="2" d="M641.5,-612C641.5,-612 545.5,-612 545.5,-612 539.5,-612 533.5,-606 533.5,-600 533.5,-600 533.5,-588 533.5,-588 533.5,-582 539.5,-576 545.5,-576 545.5,-576 641.5,-576 641.5,-576 647.5,-576 653.5,-582 653.5,-588 653.5,-588 653.5,-600 653.5,-600 653.5,-606 647.5,-612 641.5,-612"/>
<text text-anchor="middle" x="593.5" y="-591.5" font-family="sans" font-size="10.00">constraint_filtering_1</text>
</g>
<!-- 30&#45;&gt;29 -->
<g id="edge36" class="edge">
<title>30&#45;&gt;29</title>
<path fill="none" stroke="grey" stroke-width="2" d="M593.5,-575.7C593.5,-567.98 593.5,-558.71 593.5,-550.11"/>
<polygon fill="grey" stroke="grey" stroke-width="2" points="597,-550.1 593.5,-540.1 590,-550.1 597,-550.1"/>
</g>
<!-- 31&#45;&gt;30 -->
<g id="edge37" class="edge">
<title>31&#45;&gt;30</title>
<path fill="none" stroke="grey" stroke-width="2" d="M531.79,-647.89C542.64,-638.59 554.9,-628.08 565.62,-618.9"/>
<polygon fill="grey" stroke="grey" stroke-width="2" points="568.15,-621.34 573.47,-612.17 563.6,-616.02 568.15,-621.34"/>
</g>
<!-- 32&#45;&gt;30 -->
<g id="edge38" class="edge">
<title>32&#45;&gt;30</title>
<path fill="none" stroke="grey" stroke-width="2" d="M611.81,-647.89C608.96,-639.66 605.78,-630.48 602.88,-622.1"/>
<polygon fill="grey" stroke="grey" stroke-width="2" points="606.11,-620.72 599.53,-612.41 599.49,-623.01 606.11,-620.72"/>
</g>
<!-- 33 -->
<g id="node34" class="node">
<title>33</title>
<path fill="none" stroke="#d85656" stroke-width="2" d="M700,-108C700,-108 631,-108 631,-108 625,-108 619,-102 619,-96 619,-96 619,-84 619,-84 619,-78 625,-72 631,-72 631,-72 700,-72 700,-72 706,-72 712,-78 712,-84 712,-84 712,-96 712,-96 712,-102 706,-108 700,-108"/>
<text text-anchor="middle" x="665.5" y="-87.5" font-family="sans" font-size="10.00">vsearch_cluster</text>
</g>
<!-- 33&#45;&gt;0 -->
<g id="edge4" class="edge">
<title>33&#45;&gt;0</title>
<path fill="none" stroke="grey" stroke-width="2" d="M620.73,-71.88C589.46,-59.91 548.22,-44.14 518.95,-32.94"/>
<polygon fill="grey" stroke="grey" stroke-width="2" points="520.1,-29.64 509.51,-29.33 517.6,-36.17 520.1,-29.64"/>
</g>
<!-- 34 -->
<g id="node35" class="node">
<title>34</title>
<path fill="none" stroke="#56b1d8" stroke-width="2" d="M700.5,-180C700.5,-180 636.5,-180 636.5,-180 630.5,-180 624.5,-174 624.5,-168 624.5,-168 624.5,-156 624.5,-156 624.5,-150 630.5,-144 636.5,-144 636.5,-144 700.5,-144 700.5,-144 706.5,-144 712.5,-150 712.5,-156 712.5,-156 712.5,-168 712.5,-168 712.5,-174 706.5,-180 700.5,-180"/>
<text text-anchor="middle" x="668.5" y="-159.5" font-family="sans" font-size="10.00">vsearch_derep</text>
</g>
<!-- 34&#45;&gt;33 -->
<g id="edge41" class="edge">
<title>34&#45;&gt;33</title>
<path fill="none" stroke="grey" stroke-width="2" d="M667.76,-143.7C667.43,-135.98 667.03,-126.71 666.66,-118.11"/>
<polygon fill="grey" stroke="grey" stroke-width="2" points="670.16,-117.95 666.23,-108.1 663.16,-118.25 670.16,-117.95"/>
</g>
<!-- 35 -->
<g id="node36" class="node">
<title>35</title>
<path fill="none" stroke="#88d856" stroke-width="2" d="M706,-252C706,-252 645,-252 645,-252 639,-252 633,-246 633,-240 633,-240 633,-228 633,-228 633,-222 639,-216 645,-216 645,-216 706,-216 706,-216 712,-216 718,-222 718,-228 718,-228 718,-240 718,-240 718,-246 712,-252 706,-252"/>
<text text-anchor="middle" x="675.5" y="-231.5" font-family="sans" font-size="10.00">copy_to_fasta</text>
</g>
<!-- 35&#45;&gt;34 -->
<g id="edge42" class="edge">
<title>35&#45;&gt;34</title>
<path fill="none" stroke="grey" stroke-width="2" d="M673.77,-215.7C673,-207.98 672.07,-198.71 671.21,-190.11"/>
<polygon fill="grey" stroke="grey" stroke-width="2" points="674.69,-189.71 670.21,-180.1 667.72,-190.4 674.69,-189.71"/>
</g>
<!-- 36 -->
<g id="node37" class="node">
<title>36</title>
<path fill="none" stroke="#56d0d8" stroke-width="2" d="M727.5,-324C727.5,-324 631.5,-324 631.5,-324 625.5,-324 619.5,-318 619.5,-312 619.5,-312 619.5,-300 619.5,-300 619.5,-294 625.5,-288 631.5,-288 631.5,-288 727.5,-288 727.5,-288 733.5,-288 739.5,-294 739.5,-300 739.5,-300 739.5,-312 739.5,-312 739.5,-318 733.5,-324 727.5,-324"/>
<text text-anchor="middle" x="679.5" y="-303.5" font-family="sans" font-size="10.00">constraint_filtering_3</text>
</g>
<!-- 36&#45;&gt;35 -->
<g id="edge43" class="edge">
<title>36&#45;&gt;35</title>
<path fill="none" stroke="grey" stroke-width="2" d="M678.51,-287.7C678.07,-279.98 677.54,-270.71 677.05,-262.11"/>
<polygon fill="grey" stroke="grey" stroke-width="2" points="680.54,-261.89 676.48,-252.1 673.55,-262.29 680.54,-261.89"/>
</g>
<!-- 37&#45;&gt;36 -->
<g id="edge44" class="edge">
<title>37&#45;&gt;36</title>
<path fill="none" stroke="grey" stroke-width="2" d="M679.5,-359.7C679.5,-351.98 679.5,-342.71 679.5,-334.11"/>
<polygon fill="grey" stroke="grey" stroke-width="2" points="683,-334.1 679.5,-324.1 676,-334.1 683,-334.1"/>
</g>
<!-- 38 -->
<g id="node39" class="node">
<title>38</title>
<path fill="none" stroke="#68d856" stroke-width="2" d="M782.5,-468C782.5,-468 686.5,-468 686.5,-468 680.5,-468 674.5,-462 674.5,-456 674.5,-456 674.5,-444 674.5,-444 674.5,-438 680.5,-432 686.5,-432 686.5,-432 782.5,-432 782.5,-432 788.5,-432 794.5,-438 794.5,-444 794.5,-444 794.5,-456 794.5,-456 794.5,-462 788.5,-468 782.5,-468"/>
<text text-anchor="middle" x="734.5" y="-447.5" font-family="sans" font-size="10.00">constraint_filtering_2</text>
</g>
<!-- 38&#45;&gt;37 -->
<g id="edge45" class="edge">
<title>38&#45;&gt;37</title>
<path fill="none" stroke="grey" stroke-width="2" d="M720.9,-431.7C714.38,-423.39 706.43,-413.28 699.25,-404.14"/>
<polygon fill="grey" stroke="grey" stroke-width="2" points="701.87,-401.81 692.94,-396.1 696.37,-406.13 701.87,-401.81"/>
</g>
<!-- 39 -->
<g id="node40" class="node">
<title>39</title>
<path fill="none" stroke="#56d863" stroke-width="2" d="M751.5,-540C751.5,-540 721.5,-540 721.5,-540 715.5,-540 709.5,-534 709.5,-528 709.5,-528 709.5,-516 709.5,-516 709.5,-510 715.5,-504 721.5,-504 721.5,-504 751.5,-504 751.5,-504 757.5,-504 763.5,-510 763.5,-516 763.5,-516 763.5,-528 763.5,-528 763.5,-534 757.5,-540 751.5,-540"/>
<text text-anchor="middle" x="736.5" y="-519.5" font-family="sans" font-size="10.00">prinseq</text>
</g>
<!-- 39&#45;&gt;38 -->
<g id="edge47" class="edge">
<title>39&#45;&gt;38</title>
<path fill="none" stroke="grey" stroke-width="2" d="M736.01,-503.7C735.79,-495.98 735.52,-486.71 735.27,-478.11"/>
<polygon fill="grey" stroke="grey" stroke-width="2" points="738.77,-478 734.99,-468.1 731.78,-478.2 738.77,-478"/>
</g>
<!-- 40 -->
<g id="node41" class="node">
<title>40</title>
<path fill="none" stroke="#d89556" stroke-width="2" d="M786.5,-612C786.5,-612 690.5,-612 690.5,-612 684.5,-612 678.5,-606 678.5,-600 678.5,-600 678.5,-588 678.5,-588 678.5,-582 684.5,-576 690.5,-576 690.5,-576 786.5,-576 786.5,-576 792.5,-576 798.5,-582 798.5,-588 798.5,-588 798.5,-600 798.5,-600 798.5,-606 792.5,-612 786.5,-612"/>
<text text-anchor="middle" x="738.5" y="-591.5" font-family="sans" font-size="10.00">constraint_filtering_1</text>
</g>
<!-- 40&#45;&gt;39 -->
<g id="edge48" class="edge">
<title>40&#45;&gt;39</title>
<path fill="none" stroke="grey" stroke-width="2" d="M738.01,-575.7C737.79,-567.98 737.52,-558.71 737.27,-550.11"/>
<polygon fill="grey" stroke="grey" stroke-width="2" points="740.77,-550 736.99,-540.1 733.78,-550.2 740.77,-550"/>
</g>
<!-- 41&#45;&gt;40 -->
<g id="edge49" class="edge">
<title>41&#45;&gt;40</title>
<path fill="none" stroke="grey" stroke-width="2" d="M738.5,-647.89C738.5,-639.84 738.5,-630.88 738.5,-622.66"/>
<polygon fill="grey" stroke="grey" stroke-width="2" points="742,-622.41 738.5,-612.41 735,-622.41 742,-622.41"/>
</g>
<!-- 42&#45;&gt;40 -->
<g id="edge50" class="edge">
<title>42&#45;&gt;40</title>
<path fill="none" stroke="grey" stroke-width="2" d="M818.51,-647.89C803.9,-638.23 787.3,-627.26 773.02,-617.82"/>
<polygon fill="grey" stroke="grey" stroke-width="2" points="774.75,-614.76 764.48,-612.17 770.89,-620.6 774.75,-614.76"/>
</g>
</g>
</svg>
